<svg version="1" xmlns="http://www.w3.org/2000/svg" width="600" height="600" viewBox="0 0 450.000000 450.000000"><path d="M352.8 1.9c-5.9 2.4-10.9 5.9-32.3 23.1C299.2 42.1 297 43.6 289 46.2c-6.3 2.1-8.3 2.1-61.5 2.3-61.4.3-64.7.6-82.5 7.2-33.4 12.5-60.8 36.2-77.7 67.1-7.4 13.7-12.2 29.3-16.7 54.7-.6 3.2-13.1 68.2-14 72.8-.3 1.5-.8 3.9-1.1 5.5-.3 1.5-2 9.7-3.7 18.2-6.3 31.3-3.9 46.5 9.3 59.1 7.2 6.8 17.8 11.3 30.8 13.3 1.8.2 3.8.9 4.4 1.5.6.6-.4 8-3.2 22.3-2.4 11.7-4.5 22.4-4.7 23.8-.2 1.4-.9 4.8-1.5 7.6-.5 2.8-1.2 6.4-1.4 8-.3 1.6-1 5.1-1.6 7.8-.7 2.6-.9 7.8-.7 11.5.6 8.4 3.9 13.9 10.5 17.8 4.2 2.4 5.8 2.8 12.8 2.8 11.2 0 14.7-2 41-23.1 21.6-17.2 27.5-21.1 36.4-23.4 3.1-.8 19.9-1.2 55-1.2 34.8 0 53.4-.4 59.6-1.3 49.1-6.8 92.4-41.1 110.8-87.5 2.1-5.5 3.6-10.6 6.2-22 .8-3.5 5.5-26.7 5.9-29.3.3-1.5.7-3.5 1-4.5.3-.9.7-3.3 1-5.2.3-1.9 1.9-10.5 3.6-19 1.7-8.5 3.3-17.1 3.6-19 .3-1.9 2.9-15 5.6-29 2.9-14.4 5.2-29 5.4-33.5.4-12.9-3.3-23.6-11.3-32.6-7.9-8.7-17.4-13.4-29.2-14.5-3.6-.4-7.1-1-7.7-1.5-.7-.6-.3-4.2 1.3-12.1 1.2-6.2 2.7-14 3.3-17.3.9-5.6 1.4-8 2.4-13.8.2-1.2.9-4.2 1.5-6.7.5-2.5 1.3-6.1 1.6-8 .3-1.9.8-4.2 1-5 2.2-7.6 2.6-19.3.9-24.9-1.6-5.5-6.1-10.6-11.3-12.8-5.7-2.4-15.8-2.6-21.3-.4zm17.1 104c1 1.8 1 1.1-1.7 15.1-11.7 59.5-16.5 83.9-16.8 86-.3 1.4-1.6 8.1-2.9 15-1.4 6.9-2.7 13.6-3 15-.3 1.4-1.6 8.1-3 15s-2.7 13.5-3 14.8c-.2 1.3-.6 3.1-.9 4-.3.9-.7 3.3-1 5.2-.7 4.1-1.3 7.3-2.3 11.5-.4 1.6-.7 3.2-.8 3.5-3.1 13.6-9.3 24.9-19 34.5-9.2 9.2-19.4 14.9-32.9 18.4-6.7 1.8-12.5 1.9-104.2 2-110.1.2-100.5 1-98.6-8.2.6-2.9 1.3-6.3 1.6-7.7.5-3.2 10.2-53.4 12.1-62.5.8-3.9 1.7-8.5 2-10.3.3-1.8 1.2-6.4 2-10.2.8-3.8 1.7-8.2 2-9.8.2-1.6 1.8-9.6 3.4-17.8 1.7-8.2 3.2-16.2 3.5-17.8.3-1.6 1-5.2 1.5-8 .6-2.8 1.3-6.2 1.5-7.6.3-1.4 1.2-6.1 2.1-10.5.8-4.4 1.8-9.6 2.1-11.5.3-1.9.7-4.3 1-5.2.3-.9.7-2.7.9-4 .9-4.5 8.4-18.4 12.9-23.6 10.5-12.2 24.8-21.4 39.1-25.1 6.5-1.7 13.9-1.8 104.3-1.8 88.8 0 97.3.1 98.1 1.6z"/><path d="M240.6 124.5c-6.4 2.2-9.4 6-11.1 13.9-.7 3.8-2 7.3-2.7 7.7-1.6 1.1-1.4 1-37.3 1.3-28.5.1-29.1.2-32.3 2.4-5.8 4.2-6.9 15.4-1.7 18.2 1.8 1 10 1.3 34 1.3 28.8 0 31.7.2 32.5 1.7 1 1.8.9 2.5-1.4 13.5-.9 3.8-1.8 8.1-2 9.5-1.7 9.1-13.4 70-17.7 92-2.8 14.6-5.2 28.4-5.3 30.7-.2 10.4 12.2 13 19.9 4.1 2.9-3.5 4.3-7.3 5.9-16.8.1-.8.8-4 1.4-7 1.2-5.9 11.1-56.9 11.8-61 .3-1.4.7-3.2.9-4 .3-.8.7-3.2 1.1-5.4.6-4.3 1-6 1.8-9.6.3-1.4.8-3.6 1-5 1.5-9.1 6.9-36.1 7.7-38.7.7-2.3 1.8-3.3 3.7-3.7 1.5-.2 16-.5 32.2-.4 17.3 0 30.5-.4 32-1 6.3-2.5 9.3-8.8 7.6-15.6-1.2-4.8-2.9-5-36.9-5.1-25.5-.1-32-.4-32.7-1.4-.8-1.4-.7-2.4.6-9.3.9-5.1-.9-9.1-5.4-11.6-3.4-1.8-4.1-1.9-7.6-.7z"/><path d="M121.4 250.1c-3.2.9-9.3 6.3-9.5 8.3 0 .6-.2 2-.5 3.1-.2 1.1.6 4.9 1.9 8.5 8.8 25.4 43.5 29 67 7.1 12.8-12 15.1-22.7 5.6-26.5-3.3-1.3-8.7-1.6-32.7-1.5-15.8 0-30.1.5-31.8 1zM253.5 249.7c-16.6 4.4-10.1 31 9.5 38.7 6 2.4 8.3 2.8 16.5 2.9 12.1.1 22.8-4.6 32.7-14.4 7.3-7.2 11.9-15.3 11.2-19.8-.2-1.4-1.8-3.8-3.6-5.3l-3.1-2.7-30.6.1c-16.8 0-31.5.2-32.6.5z"/></svg>