<svg xmlns="http://www.w3.org/2000/svg" viewBox="0 0 469.286 280.349"><g transform="translate(-144 -2286.2)"><ellipse cx="227.36" cy="35.395" rx="227.36" ry="35.395" transform="translate(158.566 2495.759)" fill="#f8f8f8"/><g data-name="megaphone (1)"><path d="M557.684 2338.088l10.13-4.25c1.45 3.128-1.278 4.396-.398 8.333.344 1.488 1.423.96 2.207 2.573l.517 4.076 3.585 2.403c.59 1.253-.873 2.896-.873 2.896s-3.156 4.344-5.692 4.132c-3.556-.233-9.476-20.163-9.476-20.163z" fill="#45d69e"/><path data-name="Path" d="M567.371 2342.128c-.814-3.817 1.524-5.118.534-7.934l-6.32 2.141-3.909 1.656s.158.589.513 1.598l9.446 3.118a1.562 1.562 0 01-.264-.579z" fill="#2f9f74"/><path data-name="Path" d="M541.907 2321.37l5.454-2.54a40.885 40.885 0 003.632 10.91c2.043 4.378 4.34 7.975 6.098 9.72l-5.456 2.537c-3.704 1.734-8.862-1.504-11.553-7.182-2.697-5.73-1.883-11.716 1.825-13.445z" fill="#176c4b"/><path data-name="Path" d="M579.842 2316.143c-5.605-11.965-8.067-22.953-6.042-26.176a8.953 8.953 0 00-.996 1.5c-3.29 5.999-8.555 18.75-29.59 28.528l.004.053c-1.288.603-.072 5.935 2.697 11.838 2.774 5.959 6.05 10.295 7.339 9.694 21.035-9.778 34.29-5.443 41.058-4.13a4.155 4.155 0 003.233-.446c-3.343 1.652-11.446-7.591-17.703-20.861z" fill="#5eedb6"/><path data-name="Path" d="M573.303 2295.18c.246-3.34.353-4.002.473-5.047l.04-.168a10.853 10.853 0 00-.902 1.384c-3.345 6.007-8.627 18.767-29.703 28.553l.005.054c-.515.263-.643 1.254-.41 2.703l1.714-.694c19.43-8.935 25.36-20.446 28.783-26.784z" fill="#45d69e"/><path data-name="Path" d="M575.428 2288.182c-4.087 1.933-2.4 14.454 3.787 27.941 6.135 13.493 14.442 22.88 18.524 20.892 4.086-1.934 2.4-14.455-3.787-27.942s-14.49-22.82-18.524-20.891z" fill="#2f9f74"/><path data-name="Path" d="M584.99 2321.02c-6.14-13.476-7.826-25.982-3.788-27.91a3.6 3.6 0 013.094.218c-3.486-4.094-6.74-6.145-8.864-5.147-4.093 1.93-2.411 14.437 3.783 27.907 4.87 10.653 11.075 18.692 15.453 20.645a68.82 68.82 0 01-9.679-15.714z" fill="#176c4b"/><path data-name="Path" d="M577.399 2310.505a5.599 5.599 0 00-.518.263c.639 1.744 1.386 3.478 2.196 5.315a84.822 84.822 0 003.84 7.407 3.7 3.7 0 00.415-.2 7.152 7.152 0 003.4-9.402 6.999 6.999 0 00-9.333-3.383z" fill="#f8f8f8"/><path data-name="Path" d="M584.942 2321.025a77.436 77.436 0 01-4.179-11.183 6.776 6.776 0 00-3.361.675 5.633 5.633 0 00-.52.263c.64 1.74 1.39 3.475 2.201 5.31a84.64 84.64 0 003.85 7.4 3.716 3.716 0 00.416-.2 5.889 5.889 0 001.993-1.427c-.131-.261-.263-.522-.4-.838z" fill="#dadadb"/></g><g data-name="Head/Front"><path data-name="Head" d="M369.214 2343.156l-1.204-23.927c-3.564-2.45-6.443-5.852-7.306-10.298-2.487-12.809 15.78-14.741 20.893-9.31s9.021 21.634 4.918 23.945c-1.636.924-5.677.82-10.101-.451l6.92 16.252z" fill="#b28b67"/><path d="M376.324 2322.407c-1.715-2.606-4.285-10.745-5.024-13.15a3.7 3.7 0 00-.43.089 3.648 3.648 0 00-.846 6.707 55.223 55.223 0 01-1.817 4.34c-4.574-1.304-9.352-7.432-7.279-15.102a9.02 9.02 0 014.77-7.491 10.62 10.62 0 016.588-2.304c4.051-.723 7.914-.465 9.107-.017 1.004 3.746.575 5.051-5.659 6.618a11.846 11.846 0 00-2.846 5.056c.04.119 3.853 11.055 7.313 10.127 3.478-.932 5.84-3.93 7.366-4.339 1.113-.298 1.237 1.159.776 2.387-.38 1.015-3.127 2.629-2.773 3.947.2.745.946.544 1.596.368.5-.135.944-.254 1.035.086.347 1.293 1.411 3.614-.836 4.217-2.273.61-9.02 1.53-11.04-1.54z" fill="#3e3e3e"/></g><g data-name="Bottom/Skinny Jeans 1"><path d="M375.958 2391.891l29.9 75.548 20.051 63.869h7.918l-30.658-139.417z" fill="#997659"/><path data-name="Leg" d="M369.938 2391.891c-.318 26.548-4.961 62.29-5.7 63.945s-51.216 42.089-51.216 42.089l5.453 5.827s59.547-34.667 62.307-39.291 11.728-47.17 18.931-72.57z" fill="#b28b67"/><path d="M314.722 2495.849a1.125 1.125 0 00-1.507-.62l-3.588 1.61a36.129 36.129 0 00-3.076 3.243l20.389 24.298s3.927-1.68 2.465-3.93-2.394-3.768-2.394-3.768l-4.443-15.52a.562.562 0 00-.711-.38l-2.371.752a12.746 12.746 0 01-3.458-2.33z" fill="#e4e4e4" data-name="Left Shoe"/><g data-name="Right Shoe"><path data-name="shoe" d="M424.366 2527.527a1.219 1.219 0 00-1.562.82l-1.163 4.089a39.009 39.009 0 00.549 4.8h34.351s1.339-4.42-1.546-4.773-4.794-.636-4.794-.636l-15.96-7.106a.609.609 0 00-.811.324l-1.03 2.485a13.822 13.822 0 01-4.341 1.245z" fill="#e4e4e4"/></g><path d="M396.059 2524.729l37.646-4.079-27.9-128.759h-33.718z" fill="#bfbfbf"/><path data-name="Pant" d="M320.809 2488.525l24.693 29.182s39.014-42.542 45.49-55.516 11.644-70.3 11.644-70.3h-37.96s-2.823 50.431-3.805 52.778-40.062 43.856-40.062 43.856z" fill="#cecece"/></g><g data-name="Body/Long Sleeve 1"><path d="M338.61 2446.525c-.743-.293-1.75-1.716-.194-3.243 3.881-3.801 9.308-10.215 9.86-12.107 1.13-3.871.988-39.639.988-39.639l12.547-2.165s-5 39.48-5.522 41.932c-.781 3.68 3.08 8.394 4.832 10.982-1.823 1.237-2.943.268-4.15-.688-1.287-1.01-2.672-2.007-5.113-.3-3.128 2.185-5.503 5.195-8.86 5.789a7.923 7.923 0 01-4.389-.56zm102.003-52.767l-20.345-4.498 2.391-11.189 21.617 10.65a52.346 52.346 0 0113.932 2.923c.955.603 2.218 1.944-1.24 2.284s-7.08.855-7.35 2.1 2.045 2.27 1.37 4.006a.46.46 0 01-.374.296q-1.683.297-10.005-6.571z" fill="#b28b67"/><path data-name="Coat Back" d="M375.614 2332.716l5.03-1.806c22.179 13.197 35.721 43.686 62.296 56.407l-4.435 8.03c-41.817 2.177-58.837-34.925-62.89-62.631z" fill="#b73a46"/><path d="M364.497 2401.804l45.9-8.108c2.099-.37 1.168-3.325.596-4.797-6.607-16.994-23.624-33.565-28.053-58.639l-13.604.27c-7.846 19.521-7.804 41.842-4.84 71.274z" fill="#dde3e9"/><path data-name="Coat Front" d="M347.942 2430.673c-7.099-34.004 1.22-62.606 9.263-80.386a7.072 7.072 0 01-6.605-2.603c-6.378-7.864-5.475-12.973-.581-15.465s10.08-.054 18.32-1.51a6.533 6.533 0 01.998-.104l4.438-.526s28.502 57.21 24.066 78.808l-36.284 6.41a116.646 116.646 0 01-3.771 13.638z" fill="#d64654"/><path d="M375.119 2412.9l-13.562 2.395c1.434-6.402 2.876-14.253 4.287-23.332 3.082 10.338 6.201 17.382 9.274 20.936z" fill="rgba(0,0,0,0.1)"/></g><g data-name="Head/Front"><path data-name="Head" d="M223.972 2353.422l5.216-22.403c-2.635-3.205-4.388-7.108-4.008-11.439 1.095-12.482 18.437-9.427 21.71-3.062s2.592 22.357-1.8 23.408c-1.752.42-5.447-.747-9.188-3.092l2.08 16.833z" fill="#b28b67"/><path data-name="hair" d="M239.032 2309.11c-1.841-.333-6.809-.63-7.726-.646-.586-.01-1.224.112-1.561-.428-.276-.446-.16-1.189-.236-1.704a25.331 25.331 0 00-.349-1.772 17.956 17.956 0 00-1.78-4.767 14.553 14.553 0 00-6.79-6.367 22.145 22.145 0 00-10.445-1.624c-3.764.24-7.187 1.42-10.756 2.527a22.439 22.439 0 01-10.476.824c-3.553-.61-6.211-2.588-9.185-4.474a17.25 17.25 0 00-10.18-3.001 19.7 19.7 0 00-9.393 3.376 15.229 15.229 0 00-6.138 6.723c-1.372 3.17-1.431 6.676.684 9.533 3.066 4.144 8.873 5.303 13.72 5.282a26.38 26.38 0 008.225-1.357c3.551-1.18 6.637-3.231 9.969-4.88a25.711 25.711 0 014.864-1.85c1.636-.432 3.245-.614 4.702.395a22.238 22.238 0 004.696 2.8 15.3 15.3 0 005.335 1.054c3.55.035 7.068-1.011 10.53-1.692 2.823-.55 5.841-1.104 8.697-.474 1.196.263 2.93.794 3.34 2.045-7.294 1.19-10.306 10.135-8.372 16.773 1.044 3.583 7.621 7.864 10.24 6.037 1.658-1.159.691-2.734.065-3.774-1.198-1.991-1.575-4.528.729-5.86 1.987-1.148 4.007 1.696 4.046 1.694.541-.034 5.259-2.595 8.545-6.395 3.172.243 3.69-1.842 2.962-3.568s-5.42-3.967-7.962-4.43z" fill="#3e3e3e"/></g><g data-name="Bottom/Skinny Jeans 1"><path data-name="Leg" d="M219.622 2401.826l42.113 73.295 31.45 61.893 7.004.123-52.152-134.815z" fill="#997659"/><g data-name="Right Shoe"><path data-name="shoe" d="M290.597 2533.337a1.168 1.168 0 00-1.514.76l-1.18 3.908a37.527 37.527 0 00.446 4.619l32.926.575s1.357-4.222-1.402-4.609-4.584-.69-4.584-.69l-15.184-7.092a.584.584 0 00-.78.298l-1.025 2.37a13.231 13.231 0 01-4.184 1.121z" fill="#e4e4e4"/></g><path data-name="Pant" d="M284.324 2527.036l13.578-3.851s-8.414-26.701-20.742-58.806-26.597-62.013-26.597-62.013l-38.154-.666s15.79 37.793 33.674 68.766a520.927 520.927 0 0038.241 56.57z" fill="#912c36"/><path data-name="Leg" d="M216.772 2401.776c-4.539 25.419-13.004 57.848-13.766 58.84q-.763.993-53.969 17.048l1.405 6.204q63.25-8.004 66.736-12.968c3.486-4.964 21.137-44.354 28.13-68.626z" fill="#b28b67"/><path data-name="Pant" d="M161.53 2472.539l2.491 9.997q47.12 4.964 57.935-4.974t25.571-75.249l-36.381-.635q-9.561 53.526-10.62 55.762t-38.997 15.099z" fill="#b73a46"/><g data-name="Left Shoe"><path data-name="shoe" d="M152.879 2476.197a1.078 1.078 0 00-.935-1.252l-3.742-.448a34.64 34.64 0 00-4.129 1.147l4.766 30.032s4.057.556 3.966-2.015-.108-4.279-.108-4.279l4.008-14.945a.54.54 0 00-.396-.664l-2.315-.552a12.221 12.221 0 01-1.695-3.622z" fill="#e4e4e4"/></g></g><g data-name="Body/Long Sleeve 1"><path data-name="Skin" d="M176.48 2444.294c-.644-.412-1.33-1.939.414-3.094 4.35-2.871 10.626-7.915 11.492-9.6 1.771-3.442 8.187-37.174 8.187-37.174l12.197.26s-11.935 36.287-12.874 38.503c-1.409 3.325 1.36 8.475 2.535 11.237-1.942.829-2.818-.289-3.776-1.406-1.025-1.193-2.146-2.385-4.758-1.225-3.343 1.486-6.127 3.888-9.395 3.83a7.583 7.583 0 01-4.021-1.331zm104.896-31.01l-17.02-10.441 5.659-9.41 16.255 16.424a50.126 50.126 0 0111.709 7.006c.677.846 1.401 2.457-1.838 1.685s-6.682-1.438-7.311-.39 1.143 2.699-.011 4.064a.427.427 0 01-.35.16q-1.556-.026-7.093-9.099z" fill="#b28b67"/><path data-name="Coat Back" d="M232.136 2343.826l5.062-.775q12.47 32.793 44.486 59.971l-16.702 19.6c-21.214-25.64-34.107-51.938-32.846-78.796z" fill="#2f9f74"/><path data-name="Shirt" d="M209.023 2406.899l44.95.784s-14.957-38.266-14.494-64.818l-13.524-2.258c-10.955 16.957-14.338 38.01-16.932 66.292z" fill="#dde3e9"/><path data-name="Coat Front" d="M188.255 2425.811c5.885-55.389 37.403-85.209 37.403-85.209l.01.01.006-.01.885.016c1.587.082 4.835.284 4.835.284l3.113 9.423c.221 17.134 4.867 69.14 4.867 69.14l-29.422-.514q.013 3.57.213 7.243z" fill="#45d69e"/><path data-name="Shade" d="M218.149 2419.324l-8.197-.143a149.243 149.243 0 012.722-28.864 157.083 157.083 0 001.696 16.2c.967 5.805 2.238 10.113 3.777 12.806z" fill="rgba(0,0,0,0.1)"/><path d="M216.779 2401.192l14.648-6.502-.118 6.756z" fill="rgba(255,255,255,0.2)"/></g><g data-name="Head/Front"><path data-name="Head" d="M515.75 2363.24l-1.095-21.503a14.818 14.818 0 01-6.556-9.258c-2.238-11.514 14.141-13.238 18.726-8.355s8.1 19.446 4.424 21.523c-1.466.83-5.084.732-9.056-.411l6.21 14.61z" fill="#915b3c"/><path data-name="hair" d="M528.707 2326.365a15.01 15.01 0 00-1.282-2.078 10.948 10.948 0 00-1.997-2.124 19.402 19.402 0 00-4.548-2.881 11.91 11.91 0 00-9.261-.458 9.053 9.053 0 00-3.808 2.885c-.906 1.183-1.657 2.77-3.109 3.259-1.582.527-3.434-.494-4.96-1.025a12.151 12.151 0 00-5.23-.726 8.084 8.084 0 00-6.723 4.836c-1.42 3.047-1.96 7.1.295 10.029a4.378 4.378 0 001.47 1.275c.537.276 1.308.518 1.651 1.098.364.617.04 1.625-.01 2.28a6.49 6.49 0 00.254 2.832 7.218 7.218 0 003.211 3.446 7.34 7.34 0 004.187.905 10.678 10.678 0 002.825-.529 8.91 8.91 0 001.24-.615 1.226 1.226 0 011.11-.025 8.848 8.848 0 005.88-.11 9.168 9.168 0 004.486-3.007c1.167-1.671.67-3.41-.186-5.181.426.085 1.496-.078.676-.655a3.48 3.48 0 00-1.184-.312 3.867 3.867 0 01-1.238-.515c-1.508-1.018-1.068-4.03.26-4.864 1.975-1.237 3.274 1.68 5.021 2.056 1.005.216 1.763-.651 2.255-1.461a10.247 10.247 0 001.178-3.651c.178-1.056.322-2.117.509-3.17.087-.492.464-1.917-.024-2.317a6.86 6.86 0 014.9-.055 3.248 3.248 0 011.617 1.008c.098.115.34.47.515.44.327-.056.104-.415.022-.592" fill="#3e3e3e"/></g><g data-name="Bottom/Skinny Jeans 1"><path data-name="Skirt Shadow" d="M501.794 2460.65s19.647 5.5 33.9 5.5 26.48-8.471 26.48-8.471-19.225-5.645-31.666-5.645-28.714 8.616-28.714 8.616z" fill="#912c36"/><path data-name="Leg" d="M547.029 2471.437a3.093 3.093 0 01-.318-.621c-1.746-4.634-29.788-54.633-32.582-63.774h31.572c2.128 6.95 11.684 50.565 13.028 59.267 4.245 13.726 12.986 58.18 14.1 61.26 1.174 3.24-5.431 6.615-7.191 2.632a339.093 339.093 0 01-12.444-34.58c-2.781-10.038-5.049-19.068-6.165-24.184z" fill="#784931"/><path data-name="Leg" d="M521.203 2477.542c-12.82 3.243-59.715 9.107-62.933 10.026-3.31.946-6.213-5.884-2.121-7.364a338.266 338.266 0 0135.328-10.013c8.749-1.785 16.733-3.242 22.093-4.1-.454-15.068-2.53-51.237-1.169-59.049h27.939c-1.3 7.491-12.334 62.15-14.384 67.622-.651 1.953-2.592 2.816-4.749 2.878z" fill="#915b3c"/><g data-name="Left Shoe"><path data-name="shoe" d="M457.947 2479.546a1.048 1.048 0 00-.93-1.2l-3.645-.372a33.671 33.671 0 00-3.992 1.184l5.142 29.112s3.952.472 3.819-2.026-.178-4.157-.178-4.157l3.642-14.597a.524.524 0 00-.396-.64l-2.262-.495a11.879 11.879 0 01-1.706-3.492z" fill="#e4e4e4"/></g><g data-name="Right Shoe"><path data-name="shoe" d="M565.163 2528.936a1.092 1.092 0 00-1.4.737l-1.042 3.676a35.144 35.144 0 00.492 4.315h30.794s1.2-3.972-1.386-4.289-4.3-.572-4.3-.572l-14.309-6.388a.546.546 0 00-.727.291l-.92 2.23a12.365 12.365 0 01-3.891 1.123z" fill="#e4e4e4"/></g><path d="M512.491 2407.042s18.465-5.288 34.946 0c3.818 17.455 13.1 24.383 14.738 51.144-18.563 9.233-41.495-6.585-60.6 2.419-5.464-12.594 2.18-42.925 10.916-53.563z" fill="#d64654"/></g><g data-name="Body/Long Sleeve 1"><path data-name="Skin" d="M572.392 2374.516l7.399-5.957s.564-6.878 2.957-7.344c.568-.397.556.907.69 2.184.133 1.259.408 2.492 1.522 2.05 2.246-.89 7.184-6.13 8.316-5.443 1.675 1.016 1.072 5.15-.108 7.36-2.206 4.134-4.343 5.793-9.884 8.45-4.343 2.083-8.977 6.858-8.977 6.858zm-30.76-3.47l16.859-13.532a46.912 46.912 0 017.656-10.218c.853-.548 2.422-1.065 1.39 1.876s-1.99 6.08-1.077 6.767c.401.302.956.185 1.55.06a2.17 2.17 0 012.229.348q1.157 1.207-9.039 6.057l-11.365 14.83z" fill="#915b3c"/><path d="M532.138 2370.372a46.542 46.542 0 0023.257-11.7l5.094 7.51c-5.291 7.508-13.389 14.34-21.316 15.512a7.246 7.246 0 01-7.035-11.322z" fill="#cb942f"/><path d="M525.31 2429.32c-6.719.303-12.978.531-16.404 1.858-9.582-18.712.765-28.831-1.46-41.49-2.44-13.87 4.911-37.175 6.547-37.464l14.923-2.637c2.692 10.438 8.893 21.37 14.328 32.293 11.279.547 33.844-12.282 33.844-12.282s8.304 11.514 8.791 16.956c-12.721 9.806-24.156 15.195-34.015 17.158a34.656 34.656 0 01.129 17.078c-1.122 4.147-5.89 6.163-11.957 7.235a119.672 119.672 0 01-14.726 1.295z" fill="#efb03a"/></g></g></svg>