<svg xmlns="http://www.w3.org/2000/svg" viewBox="0 0 599.197 307.726"><ellipse cx="299.598" cy="24.448" rx="299.598" ry="24.448" transform="translate(0 232.758)" fill="#f8f8f8"/><g data-name="Head/Front"><path data-name="Head" d="M456.81 93.65l-1.342-26.386c-3.922-2.705-7.093-6.458-8.046-11.361-2.745-14.127 17.356-16.246 22.983-10.253s9.942 23.864 5.426 26.416c-1.799 1.016-6.246.9-11.112-.507l7.627 17.926z" fill="#915b3c"/><path d="M472.714 48.399a18.422 18.422 0 00-1.577-2.55 13.438 13.438 0 00-2.45-2.605 23.81 23.81 0 00-5.582-3.536 14.617 14.617 0 00-11.363-.563 11.11 11.11 0 00-4.673 3.544c-1.113 1.453-2.034 3.399-3.817 3.999-1.939.652-4.215-.605-6.086-1.258a14.914 14.914 0 00-6.421-.895 9.921 9.921 0 00-8.245 5.938c-1.749 3.734-2.41 8.712.357 12.306a5.373 5.373 0 001.8 1.563c.66.341 1.605.635 2.026 1.348.447.757.049 1.995-.018 2.8a7.966 7.966 0 00.31 3.473 8.858 8.858 0 003.941 4.23 9.008 9.008 0 005.138 1.107 13.102 13.102 0 003.466-.65 10.934 10.934 0 001.522-.753 1.5 1.5 0 011.363-.03 10.86 10.86 0 007.212-.135 11.252 11.252 0 005.506-3.69c1.432-2.05.82-4.185-.228-6.358.522.105 1.838-.097.83-.803a4.272 4.272 0 00-1.45-.384 4.747 4.747 0 01-1.515-.629c-1.85-1.25-1.31-4.947.32-5.97 2.424-1.52 4.018 2.061 6.165 2.522 1.233.266 2.167-.8 2.767-1.793a12.576 12.576 0 001.444-4.48c.218-1.296.395-2.598.623-3.895.108-.603.57-2.353-.029-2.843a8.419 8.419 0 016.014-.067 3.987 3.987 0 011.988 1.235c.12.14.417.576.633.539.4-.068.126-.508.027-.726" fill="#3e3e3e"/></g><g data-name="Bottom/Skinny Jeans 1"><path data-name="Skirt Shadow" d="M439.684 213.208s24.112 6.751 41.607 6.751 32.5-10.4 32.5-10.4-23.597-6.926-38.866-6.926-35.241 10.575-35.241 10.575z" fill="#912c36"/><path d="M495.206 226.447a3.8 3.8 0 01-.39-.762c-2.149-5.688-36.565-67.051-39.994-78.27h38.748c2.607 8.53 14.34 62.058 15.992 72.738 5.21 16.846 15.937 71.4 17.307 75.184 1.441 3.976-6.665 8.118-8.825 3.23-3.437-7.778-11.626-29.3-15.272-42.44-3.419-12.319-6.203-23.402-7.566-29.68z" fill="#784931"/><path data-name="Leg" d="M463.505 233.939c-15.735 3.976-73.289 11.176-77.239 12.306-4.063 1.161-7.625-7.222-2.6-9.038 7.988-2.892 30.006-9.565 43.356-12.292 10.738-2.191 20.536-3.979 27.114-5.027-.557-18.495-3.105-62.885-1.438-72.473h34.285c-1.6 9.194-15.137 76.277-17.653 82.992-.8 2.4-3.181 3.457-5.829 3.532z" fill="#915b3c"/><path d="M385.87 236.399a1.286 1.286 0 00-1.141-1.475l-4.474-.456a41.324 41.324 0 00-4.9 1.455l6.312 35.728s4.85.58 4.687-2.486-.218-5.102-.218-5.102l4.47-17.914a.643.643 0 00-.488-.784l-2.776-.61a14.58 14.58 0 01-2.094-4.286z" fill="#e4e4e4" data-name="Left Shoe"/><g data-name="Right Shoe"><path data-name="shoe" d="M517.459 297.016a1.34 1.34 0 00-1.719.9l-1.281 4.515a43.132 43.132 0 00.6 5.3h37.8s1.473-4.875-1.7-5.264-5.273-.7-5.273-.7l-17.57-7.846a.67.67 0 00-.892.357l-1.129 2.742a15.176 15.176 0 01-4.776 1.372z" fill="#e4e4e4"/></g><path d="M452.812 147.414s22.662-6.49 42.885 0c4.69 21.422 16.088 29.925 18.092 62.769-22.783 11.332-50.93-8.082-74.379 2.969-6.701-15.46 2.68-52.682 13.402-65.738z" fill="#d64654"/></g><g data-name="Body/Long Sleeve 1"><path d="M526.33 107.496l9.085-7.311s.693-8.441 3.63-9.012c.697-.489.681 1.112.846 2.68.163 1.545.5 3.06 1.867 2.515 2.752-1.096 8.817-7.524 10.206-6.679 2.055 1.247 1.32 6.32-.13 9.034-2.707 5.073-5.331 7.108-12.127 10.37-5.33 2.555-11.016 8.415-11.016 8.415zm-37.754-4.259l20.69-16.609a57.575 57.575 0 019.398-12.538c1.047-.672 2.972-1.307 1.704 2.302s-2.44 7.463-1.32 8.308c.493.371 1.173.227 1.902.07.931-.194 1.94-.404 2.737.431q1.42 1.482-11.093 7.435l-13.952 18.196z" fill="#915b3c"/><path d="M476.925 102.41a57.12 57.12 0 0028.546-14.362l6.252 9.218c-6.494 9.215-16.431 17.599-26.162 19.038a8.893 8.893 0 01-8.636-13.894z" fill="#cb942f"/><path d="M468.544 174.757c-8.243.374-15.927.651-20.132 2.28-11.76-22.965.94-35.385-1.794-50.926-2.993-17.018 6.03-45.62 8.038-45.975l18.314-3.235c3.304 12.81 10.915 26.227 17.585 39.632 13.844.674 41.538-15.075 41.538-15.075s10.19 14.132 10.787 20.812c-15.612 12.034-29.645 18.648-41.745 21.062 1.66 7.146 1.995 14.167.157 20.96-1.377 5.082-7.23 7.563-14.674 8.878a146.87 146.87 0 01-18.074 1.587z" fill="#efb03a"/></g><g data-name="megaphone (1)"><path d="M517.232 64.014l12.432-5.213c1.782 3.839-1.567 5.396-.488 10.227.419 1.827 1.747 1.179 2.71 3.159l.637 5.003 4.396 2.944c.726 1.535-1.07 3.555-1.07 3.555s-3.875 5.33-6.987 5.07c-4.365-.282-11.63-24.745-11.63-24.745z" fill="#45d69e"/><path data-name="Path" d="M529.12 68.971c-1-4.685 1.872-6.285.654-9.737l-7.756 2.628-4.797 2.032s.193.722.63 1.96l11.592 3.828a1.917 1.917 0 01-.324-.71z" fill="#2f9f74"/><path data-name="Path" d="M497.868 43.493l6.696-3.115c.325 2.967 1.943 7.952 4.456 13.391 2.507 5.373 5.324 9.788 7.483 11.93l-6.696 3.113c-4.546 2.129-10.874-1.846-14.175-8.813-3.313-7.034-2.311-14.379 2.236-16.506z" fill="#176c4b"/><path data-name="Path" d="M544.427 37.08c-6.883-14.683-9.902-28.17-7.416-32.124a10.988 10.988 0 00-1.222 1.842c-4.032 7.36-10.501 23.01-36.318 35.01l.006.067c-1.582.74-.089 7.283 3.31 14.529 3.404 7.31 7.425 12.634 9.007 11.896 25.817-12.001 42.084-6.68 50.392-5.07a5.099 5.099 0 003.967-.547c-4.104 2.027-14.05-9.32-21.726-25.603z" fill="#5eedb6"/><path data-name="Path" d="M536.402 11.354c.301-4.096.428-4.91.58-6.196l.048-.205a13.32 13.32 0 00-1.105 1.702c-4.106 7.37-10.585 23.03-36.455 35.04l.006.066c-.632.322-.79 1.538-.502 3.316l2.102-.85c23.847-10.967 31.124-25.094 35.326-32.873z" fill="#45d69e"/><path data-name="Path" d="M539.008 2.764c-5.011 2.373-2.945 17.74 4.649 34.293 7.529 16.557 17.724 28.08 22.734 25.64 5.011-2.373 2.945-17.74-4.649-34.294S543.96.396 539.008 2.764z" fill="#2f9f74"/><path data-name="Path" d="M550.742 43.06c-7.535-16.537-9.604-31.886-4.647-34.252a4.423 4.423 0 013.797.27c-4.279-5.024-8.271-7.542-10.879-6.314-5.022 2.371-2.953 17.72 4.647 34.252 5.974 13.073 13.588 22.939 18.961 25.335a84.462 84.462 0 01-11.88-19.29z" fill="#176c4b"/><path data-name="Path" d="M541.428 30.162a6.877 6.877 0 00-.637.323c.79 2.14 1.702 4.267 2.696 6.523a104.19 104.19 0 004.713 9.09 4.537 4.537 0 00.51-.245 8.777 8.777 0 004.174-11.54 8.587 8.587 0 00-11.456-4.151z" fill="#f8f8f8"/><path data-name="Path" d="M550.684 43.071a95.037 95.037 0 01-5.127-13.723 8.315 8.315 0 00-4.128.829 6.913 6.913 0 00-.638.322c.789 2.14 1.705 4.267 2.7 6.517a104.58 104.58 0 004.728 9.08 4.561 4.561 0 00.511-.245 7.227 7.227 0 002.446-1.75 19.22 19.22 0 01-.492-1.03z" fill="#dadadb"/></g><g data-name="Head/Front"><path data-name="Head" d="M112.305 69.53l-1.479-29.365c-4.372-3.007-7.906-7.182-8.965-12.639-3.052-15.72 19.37-18.093 25.642-11.428s11.071 26.552 6.037 29.394c-2.008 1.134-6.967 1.006-12.398-.554l8.494 19.945z" fill="#b28b67"/><path data-name="Hair" d="M121.03 44.062c-2.105-3.199-5.259-13.19-6.167-16.144a4.54 4.54 0 00-.528.108 4.478 4.478 0 00-1.038 8.233 67.596 67.596 0 01-2.23 5.327c-5.614-1.6-11.478-9.12-8.93-18.537a11.07 11.07 0 015.85-9.192 13.035 13.035 0 018.088-2.82c4.97-.886 9.714-.57 11.18-.022 1.233 4.597.706 6.2-6.945 8.123a14.539 14.539 0 00-3.493 6.205c.05.146 4.729 13.567 8.975 12.428 4.27-1.145 7.167-4.82 9.042-5.323 1.365-.366 1.52 1.422.952 2.93-.467 1.244-3.834 3.225-3.4 4.846.245.914 1.161.666 1.958.45.614-.165 1.16-.31 1.27.106.426 1.587 1.732 4.436-1.028 5.176-2.794.745-11.074 1.876-13.556-1.894z" fill="#3e3e3e"/></g><g data-name="Bottom/Skinny Jeans 1"><path data-name="Leg" d="M120.582 129.343l36.691 92.719 24.609 78.387h9.718l-37.618-171.106z" fill="#997659"/><path data-name="Leg" d="M113.193 129.343c-.391 32.582-6.089 76.449-7 78.48s-62.852 51.656-62.852 51.656l6.693 7.151s73.087-42.547 76.469-48.222 14.393-57.894 23.238-89.065z" fill="#b28b67"/><g data-name="Left Shoe"><path data-name="shoe" d="M45.427 256.93a1.38 1.38 0 00-1.85-.757l-4.403 1.973a44.34 44.34 0 00-3.775 3.98l25.024 29.82s4.818-2.061 3.024-4.822-2.939-4.626-2.939-4.626l-5.45-19.046a.69.69 0 00-.873-.468l-2.91.922a15.644 15.644 0 01-4.243-2.86z" fill="#e4e4e4"/></g><g data-name="Right Shoe"><path data-name="shoe" d="M179.993 295.809a1.5 1.5 0 00-1.917 1.006l-1.427 5.019a47.876 47.876 0 00.674 5.892h42.163s1.644-5.425-1.9-5.857-5.883-.781-5.883-.781l-19.595-8.72a.748.748 0 00-1 .4l-1.259 3.045a16.963 16.963 0 01-5.323 1.527z" fill="#e4e4e4"/></g><path d="M145.251 292.375l46.2-5.006-34.239-158.026H115.83z" fill="#bfbfbf"/><path data-name="Pant" d="M52.898 247.943l30.306 35.815s47.881-52.215 55.83-68.137 14.29-86.278 14.29-86.278h-46.588s-3.464 61.893-4.67 64.774-49.168 53.826-49.168 53.826z" fill="#cecece"/></g><g data-name="Body/Long Sleeve 1"><path data-name="Skin" d="M74.744 196.395c-.91-.36-2.148-2.107-.236-3.98 4.763-4.665 11.424-12.535 12.104-14.86 1.383-4.75 1.206-48.651 1.206-48.651l15.398-2.654s-6.136 48.453-6.776 51.463c-.96 4.516 3.781 10.302 5.936 13.476-2.239 1.513-3.612.333-5.093-.84-1.579-1.244-3.28-2.467-6.28-.37-3.84 2.68-6.753 6.372-10.875 7.1a9.723 9.723 0 01-5.384-.684zm125.184-64.76l-24.96-5.52 2.927-13.733 26.53 13.072a64.244 64.244 0 0117.099 3.582c1.171.74 2.72 2.384-1.523 2.803s-8.69 1.048-9.016 2.577 2.51 2.786 1.681 4.916a.564.564 0 01-.46.363q-2.064.368-12.278-8.06z" fill="#b28b67"/><path data-name="Coat Back" d="M120.16 56.716l6.173-2.215c27.224 16.195 43.84 53.615 76.457 69.228l-5.444 9.858c-51.318 2.668-72.211-42.867-77.186-76.87z" fill="#b73a46"/><path d="M106.516 141.51l56.342-9.954c2.575-.454 1.434-4.08.73-5.887-8.112-20.856-28.995-41.195-34.43-71.96l-16.703.326c-9.628 23.958-9.582 51.353-5.939 87.474z" fill="#dde3e9"/><path data-name="Coat Front" d="M86.198 176.94c-8.713-41.734 1.496-76.837 11.374-98.663a8.68 8.68 0 01-8.106-3.194c-7.829-9.648-6.726-15.923-.719-18.976s12.37-.07 22.485-1.856a8.017 8.017 0 011.22-.127l5.448-.645s34.98 70.216 29.539 96.722l-44.531 7.866a143.16 143.16 0 01-4.627 16.738z" fill="#d64654"/><path d="M119.554 155.127l-16.646 2.94c1.76-7.859 3.53-17.493 5.261-28.635 3.782 12.686 7.611 21.332 11.382 25.694z" fill="rgba(0,0,0,0.1)"/></g><g data-name="Head/Front"><path data-name="Head" d="M295.38 78.502l7.151-24.742c-2.758-3.739-4.489-8.205-3.81-13.026 1.96-13.89 21.171-9.457 24.455-2.146s1.583 25.15-3.39 26.068c-1.983.363-6.045-1.155-10.09-3.997l1.335 18.943z" fill="#b28b67"/><path data-name="hair" d="M314.826 29.841c-2.04-.483-7.577-1.105-8.6-1.177-.655-.046-1.375.054-1.72-.574-.283-.514-.107-1.339-.167-1.917a27.795 27.795 0 00-.286-2.002 20.11 20.11 0 00-1.71-5.435 16.294 16.294 0 00-7.216-7.517 24.794 24.794 0 00-11.578-2.43c-4.224.047-8.122 1.17-12.177 2.189a25.124 25.124 0 01-11.767.309c-3.933-.891-6.791-3.26-10.002-5.547a19.315 19.315 0 00-11.206-3.95 22.059 22.059 0 00-10.702 3.222 17.05 17.05 0 00-7.257 7.157c-1.72 3.463-1.994 7.382.203 10.698 3.185 4.814 9.61 6.452 15.03 6.714a29.537 29.537 0 009.285-1.037c4.04-1.11 7.611-3.222 11.434-4.871a28.789 28.789 0 015.546-1.782c1.856-.386 3.666-.496 5.236.719a24.9 24.9 0 005.087 3.405 17.128 17.128 0 005.902 1.493c3.967.247 7.963-.714 11.872-1.273 3.188-.454 6.596-.891 9.752-.018 1.317.364 3.229 1.06 3.615 2.483-8.225.902-12.12 10.725-10.348 18.262.957 4.068 8.06 9.243 11.094 7.352 1.923-1.197.934-3.016.296-4.215-1.223-2.292-1.496-5.157 1.159-6.51 2.288-1.167 4.38 2.133 4.424 2.133.608-.006 6.033-2.592 9.931-6.647 3.532.46 4.234-1.842 3.522-3.815s-5.835-4.75-8.652-5.419z" fill="#3e3e3e"/></g><g data-name="Bottom/Skinny Jeans 1"><path data-name="Leg" d="M287.67 132.368l42.774 84.43 31.522 71.054 7.83.549-50.384-153.807z" fill="#997659"/><g data-name="Right Shoe"><path data-name="shoe" d="M359.29 283.59a1.308 1.308 0 00-1.734.761l-1.552 4.3a42.019 42.019 0 00.227 5.19l36.781 2.58s1.767-4.641-1.297-5.235-5.084-1.039-5.084-1.039l-16.56-8.826a.653.653 0 00-.893.286l-1.285 2.59a14.814 14.814 0 01-4.742 1.008z" fill="#e4e4e4"/></g><path data-name="Pant" d="M352.648 276.175l15.41-3.507s-7.837-30.35-19.732-66.975-26.093-70.901-26.093-70.901l-42.62-2.99s15.43 43.187 33.605 78.87a583.263 583.263 0 0039.43 65.503z" fill="#912c36"/><path data-name="Leg" d="M284.486 132.144c-6.57 28.154-17.943 63.917-18.854 64.981q-.912 1.064-61.347 15.885l1.206 7.02q71.197-5.227 75.384-10.573c4.188-5.346 26.238-48.346 35.49-75.077z" fill="#b28b67"/><path data-name="Pant" d="M218.555 208.015l2.197 11.325q52.393 8.322 65.07-2.156t33.02-82.63l-40.641-2.85q-13.84 59.287-15.154 61.719t-44.492 14.592z" fill="#b73a46"/><g data-name="Left Shoe"><path data-name="shoe" d="M208.668 211.597a1.208 1.208 0 00-.972-1.455l-4.158-.722a38.785 38.785 0 00-4.683 1.04l3.563 33.864s4.503.864 4.55-2.02.136-4.79.136-4.79l5.358-16.48a.6.6 0 00-.403-.762l-2.562-.756a13.684 13.684 0 01-1.678-4.15z" fill="#e4e4e4"/></g></g><g data-name="Body/Long Sleeve 1"><path data-name="Skin" d="M236.932 177.312c-.696-.5-1.375-2.247.642-3.433 5.033-2.953 12.352-8.233 13.419-10.063 2.183-3.743 11.342-41.083 11.342-41.083l13.624 1.013s-15.48 39.87-16.661 42.294c-1.772 3.635 1.022 9.555 2.172 12.713-2.22.812-3.134-.488-4.142-1.795-1.074-1.393-2.258-2.793-5.248-1.649-3.825 1.465-7.08 3.987-10.73 3.73a8.49 8.49 0 01-4.418-1.727zm119.111-28.5l-18.415-12.677 6.88-10.189 17.21 19.322a56.125 56.125 0 0112.68 8.523c.707.987 1.422 2.83-2.154 1.777s-7.382-2-8.152-.868 1.118 3.087-.252 4.544a.478.478 0 01-.4.157q-1.739-.12-7.397-10.59z" fill="#b28b67"/><path data-name="Coat Back" d="M305.074 68.255l5.706-.573q12.013 37.401 46.213 69.673l-19.833 20.93c-22.208-29.915-35.077-60.08-32.086-90.03z" fill="#2f9f74"/><path data-name="Shirt" d="M275.52 137.415l50.214 3.522S311.26 97.274 313.34 67.609l-14.988-3.32c-13.247 18.316-18.262 41.658-22.832 73.126z" fill="#dde3e9"/><path data-name="Coat Front" d="M251.186 157.34c9.836-61.586 46.835-93.074 46.835-93.074l.01.01.008-.009.99.07c1.77.185 5.391.6 5.391.6l2.924 10.714c-.76 19.174 1.378 77.595 1.378 77.595l-32.871-2.305q-.197 3.998-.19 8.11z" fill="#45d69e"/><path data-name="Shade" d="M284.994 151.845l-9.157-.642a167.103 167.103 0 014.742-32.114 175.88 175.88 0 00.942 18.219c.745 6.547 1.906 11.44 3.472 14.54z" fill="rgba(0,0,0,0.1)"/><path d="M284.528 131.492l16.76-6.41-.53 7.549z" fill="rgba(255,255,255,0.2)"/></g></svg>