<svg xmlns="http://www.w3.org/2000/svg" width="250.109" height="272.91"><g fill="#B83B47"><path d="M125.377 65.908c6.289 0 12.578-.012 18.868.003 4.831.012 9.114-1.355 12.889-4.505 4.742-3.958 9.649-7.719 14.476-11.578 2.804-2.242 5.911-3.598 9.577-3.329 5.162.38 8.696 4.018 8.538 9.185-.175 5.759-1.971 11.281-2.917 16.932-.749 4.483-1.6 8.956-2.593 13.39-.37 1.649-.034 2.056 1.603 2.065 12.367.067 19.9 11.195 17.623 22.439-3.673 18.138-6.728 36.407-10.674 54.483-5.182 23.733-28.712 42.17-52.949 42.17-11.494 0-22.989.07-34.482-.032-4.666-.042-8.685 1.315-12.28 4.26-4.781 3.913-9.656 7.71-14.471 11.581-1.971 1.584-4.099 2.786-6.625 3.248-7.679 1.405-13.032-3.915-11.57-11.598 1.722-9.036 3.471-18.068 5.308-27.084.347-1.701.364-2.346-1.761-2.588-13.409-1.521-19.733-10.616-17.077-24.012 3.389-17.092 6.6-34.218 9.978-51.312 4.994-25.268 30.254-44.631 53.251-43.747 5.089.196 10.192.03 15.288.029m18.158 22.231c-12.039 0-24.078-.08-36.115.022-11.927.102-24.245 10.282-26.453 21.651-4.683 24.111-9.346 48.227-14.108 72.322-.447 2.262.098 2.771 2.308 2.766 24.185-.063 48.371.057 72.557-.08 13.11-.074 24.556-9.283 27.227-22.242 4.934-23.935 9.46-47.953 14.206-71.927.4-2.023-.103-2.576-2.204-2.559-12.473.096-24.945.047-37.418.047"/><path d="M149.499 105.443c3.469 0 6.938.032 10.407-.012 2.097-.027 4.057.234 4.353 2.769.3 2.568-.527 4.621-3.264 5.561-1.167.401-2.317.415-3.499.415-7.046.001-14.093.053-21.139-.037-1.731-.022-2.367.462-2.704 2.241-3.364 17.707-6.838 35.395-10.306 53.081-.286 1.462-.452 2.937-1.26 4.306-1.479 2.506-4.02 3.813-6.463 2.93-2.668-.963-2.607-3.159-2.182-5.389 2.036-10.688 4.1-21.371 6.164-32.054 1.425-7.379 2.734-14.784 4.367-22.117.625-2.809-.372-3.052-2.727-3.007-6.827.132-13.659.046-20.488.047-2.464 0-4.942.076-4.94-3.483.002-2.907 1.923-5.14 4.997-5.208 5.635-.124 11.274-.036 16.911-.046 2.059-.003 4.12.024 6.175-.07 1.612-.075 2.695-.555 2.842-2.627.122-1.723.363-3.64 1.961-4.975 1.672-1.398 3.405-2.516 5.564-1.399 2.286 1.184 2.93 3.465 2.116 5.619-1.318 3.497.359 3.616 3.034 3.492 3.354-.155 6.722-.037 10.081-.037"/><path d="M96.429 146.081c3.567 0 7.137-.09 10.7.023 4.219.135 5.902 3.078 3.802 6.643-4.655 7.906-14.394 12.222-22.494 9.605-4.7-1.518-7.467-4.934-8.684-9.552-.896-3.4 1.97-6.552 5.975-6.693 3.563-.125 7.134-.026 10.701-.026m50.585 17.032c-7.429-.114-12.122-3.374-14.029-8.93-1.501-4.37.644-7.918 5.265-8.046 7.352-.203 14.717-.176 22.07-.002 3.59.086 5.185 3.23 3.383 6.352-3.959 6.858-10.039 10.248-16.689 10.626"/></g></svg>