<svg xmlns="http://www.w3.org/2000/svg" viewBox="0 0 469.286 280.349">
  <g id="ilustra" transform="translate(-144 -2286.2)">
    <ellipse id="Oval" cx="227.36" cy="35.395" rx="227.36" ry="35.395" transform="translate(158.566 2495.759)" fill="#f8f8f8"/>
    <g id="megaphone_1_" data-name="megaphone (1)" transform="matrix(0.996, -0.087, 0.087, 0.996, 535.245, 2291.529)">
      <path id="Path" d="M14.93,20.947,4.467,24.3c-1.174-3.243,1.655-4.269,1.121-8.268-.213-1.513-1.334-1.081-1.975-2.756l-.16-4.107L.09,6.463c-.48-1.3,1.121-2.81,1.121-2.81S4.734-.4,7.243.032C10.766.573,14.93,20.947,14.93,20.947Z" transform="translate(33.236 69.292) rotate(180)" fill="#45d69e"/>
      <path id="Path-2" data-name="Path" d="M1.364.6C1.843,4.475-.6,5.567.142,8.459L6.625,6.876l4.039-1.31s-.106-.6-.372-1.637L1.152,0A1.562,1.562,0,0,1,1.364.6Z" transform="translate(28.971 53.814) rotate(180)" fill="#2f9f74"/>
      <path id="Path-3" data-name="Path" d="M13.555,21.7,7.9,23.757A40.893,40.893,0,0,0,5.23,12.569C3.576,8.029,1.6,4.245,0,2.353L5.657.3c3.842-1.405,8.7,2.27,10.887,8.162C18.732,14.407,17.4,20.3,13.555,21.7Z" transform="translate(17.596 52.014) rotate(180)" fill="#176c4b"/>
      <path id="Path-4" data-name="Path" d="M15.824,23.067c4.544,12.41,6.041,23.573,3.742,26.608a8.955,8.955,0,0,0,1.123-1.409c3.8-5.69,10.157-17.937,31.968-25.849v-.054c1.336-.488.588-5.907-1.657-12.03C48.754,4.154,45.867-.452,44.531.035,22.72,7.947,9.89,2.474,3.261.577A4.156,4.156,0,0,0,0,.74C3.475-.615,10.745,9.3,15.824,23.067Z" transform="translate(58.119 51.474) rotate(180)" fill="#5eedb6"/>
      <path id="Path-5" data-name="Path" d="M.964,24.725c-.536,3.308-.7,3.958-.91,4.988L0,29.877a10.855,10.855,0,0,0,1.018-1.3C4.874,22.882,11.248,10.628,33.1,2.711V2.657c.536-.217.75-1.193.643-2.657L31.975.542C11.837,7.754,4.927,18.707.964,24.725Z" transform="translate(38.568 31.676) rotate(180)" fill="#45d69e"/>
      <path id="Path-6" data-name="Path" d="M20.81,50.772c4.24-1.571,3.65-14.194-1.342-28.171C14.53,8.623,7.069-1.453,2.829.172c-4.24,1.571-3.65,14.194,1.342,28.171S16.623,52.343,20.81,50.772Z" transform="translate(61.14 50.934) rotate(180)" fill="#2f9f74"/>
      <path id="Path-7" data-name="Path" d="M8.276,16.5c4.944,13.961,5.536,26.569,1.344,28.139a3.6,3.6,0,0,1-3.063-.487c3.117,4.383,6.18,6.71,8.384,5.9C19.187,48.485,18.6,35.877,13.6,21.916,9.674,10.877,4.192,2.327,0,0A68.834,68.834,0,0,1,8.276,16.5Z" transform="translate(55.275 50.214) rotate(180)" fill="#176c4b"/>
      <path id="Path-8" data-name="Path" d="M9.414,13.419a5.6,5.6,0,0,0,.539-.217c-.485-1.793-1.079-3.586-1.726-5.487C7.257,5,6.178,2.39,5.046,0a3.7,3.7,0,0,0-.431.163A7.153,7.153,0,0,0,.408,9.236,7,7,0,0,0,9.414,13.419Z" transform="translate(49.765 35.996) rotate(180)" fill="#f8f8f8"/>
      <path id="Path-9" data-name="Path" d="M.325,2.28A77.452,77.452,0,0,1,3.516,13.787a6.777,6.777,0,0,0,3.408-.38,5.634,5.634,0,0,0,.541-.217C6.978,11.4,6.383,9.607,5.734,7.707,4.76,4.994,3.678,2.388,2.542,0A3.717,3.717,0,0,0,2.11.163,5.89,5.89,0,0,0,0,1.411C.108,1.682.216,1.954.325,2.28Z" transform="translate(47.277 35.996) rotate(180)" fill="#dadadb"/>
    </g>
    <g id="humaaan-3" transform="translate(306.226 2292.292)">
      <g id="Head_Front" data-name="Head/Front" transform="matrix(0.966, -0.259, 0.259, 0.966, 51.112, 6.834)">
        <g id="Head" transform="translate(0.068 1.204)">
          <path id="Head-2" data-name="Head" d="M0,44.394l5.033-23.42C2.226,17.685.326,13.654.644,9.137,1.559-3.877,19.7-1.014,23.233,5.555s3.11,23.23-1.451,24.4c-1.819.468-5.695-.679-9.639-3.052l2.476,17.488Z" transform="translate(0 0)" fill="#b28b67"/>
        </g>
        <path id="Hair" d="M12.308,27.4c-.982-2.961-1.356-11.486-1.447-14a3.7,3.7,0,0,0-.438-.026,3.648,3.648,0,0,0-2.554,6.259c-.846,1.192-1.793,2.437-2.879,3.721-4.08-2.444-7.107-9.6-3.119-16.47a9.019,9.019,0,0,1,6.546-6A10.619,10.619,0,0,1,15.376.365c4.1.351,7.764,1.6,8.8,2.342,0,3.877-.753,5.027-7.179,4.926a11.845,11.845,0,0,0-4.058,4.146c.009.125.859,11.674,4.441,11.674,3.6,0,6.657-2.283,8.237-2.283,1.152,0,.895,1.439.131,2.506-.63.881-3.7,1.729-3.7,3.094,0,.771.773.77,1.446.768.519,0,.978,0,.978.351,0,1.339.427,3.856-1.9,3.856C20.219,31.746,13.465,30.888,12.308,27.4Z" transform="translate(0 0)" fill="#3e3e3e"/>
      </g>
      <g id="Bottom_Skinny_Jeans_1" data-name="Bottom/Skinny Jeans 1" transform="translate(0 99.599)">
        <path id="Leg" d="M0,0,29.9,75.548l20.051,63.869h7.918L27.211,0Z" transform="translate(69.732)" fill="#997659"/>
        <path id="Leg-2" data-name="Leg" d="M56.916,0c-.318,26.548-4.961,62.29-5.7,63.945S0,106.034,0,106.034l5.453,5.827S65,77.194,67.76,72.57,79.488,25.4,86.691,0Z" transform="translate(6.796)" fill="#b28b67"/>
        <g id="Left_Shoe" data-name="Left Shoe" transform="translate(8.904 100.331) rotate(50)">
          <path id="shoe" d="M2.516,2.644A1.125,1.125,0,0,0,1.073,3.4L0,7.184a36.129,36.129,0,0,0,.507,4.44H32.226S33.463,7.536,30.8,7.21s-4.426-.589-4.426-.589L11.63.049a.562.562,0,0,0-.749.3l-.948,2.3A12.746,12.746,0,0,1,5.926,3.8Z" transform="translate(0 0)" fill="#e4e4e4"/>
        </g>
        <g id="Right_Shoe" data-name="Right Shoe" transform="translate(115.415 132.777)">
          <path id="shoe-2" data-name="shoe" d="M2.725,3.191a1.219,1.219,0,0,0-1.562.82L0,8.1a39.009,39.009,0,0,0,.549,4.8H34.9s1.339-4.42-1.546-4.773-4.794-.636-4.794-.636L12.6.385a.609.609,0,0,0-.811.324L10.759,3.194A13.822,13.822,0,0,1,6.418,4.439Z" transform="translate(0 -0.332)" fill="#e4e4e4"/>
        </g>
        <path id="Pant" d="M23.972,132.838l37.646-4.079L33.718,0H0Z" transform="translate(65.861 0)" fill="#bfbfbf"/>
        <path id="Pant-2" data-name="Pant" d="M0,96.634l24.693,29.182S63.707,83.274,70.183,70.3,81.827,0,81.827,0H43.867s-2.823,50.431-3.805,52.778S0,96.634,0,96.634Z" transform="translate(14.583)" fill="#cecece"/>
      </g>
      <g id="Body_Long_Sleeve_1" data-name="Body/Long Sleeve 1" transform="matrix(0.985, -0.174, 0.174, 0.985, 12.335, 45.038)">
        <path id="Skin" d="M.747,52.776c-.68-.418-1.424-1.994.374-3.226,4.482-3.068,10.94-8.438,11.813-10.205C14.72,35.73,20.8.492,20.8.492l12.729.05s-11.789,38-12.729,40.322c-1.409,3.488,1.573,8.8,2.848,11.653-2.01.9-2.944-.248-3.967-1.4C18.59,49.9,17.4,48.677,14.7,49.933c-3.46,1.607-6.321,4.158-9.73,4.158A7.921,7.921,0,0,1,.747,52.776Zm109.6-34.21L91.1,10.6,95.4,0l19.43,14.245a52.333,52.333,0,0,1,13.208,5.3c.835.76,1.845,2.3-1.619,2.033s-7.119-.39-7.6.789,1.618,2.59.652,4.182a.459.459,0,0,1-.421.227Q117.342,26.775,110.343,18.566Z" transform="translate(0 58.214)" fill="#b28b67"/>
        <path id="Coat_Back" data-name="Coat Back" d="M0,1.358,5.168,0C26.105,15.088,36.924,46.645,62.281,61.645L57.16,69.256C15.314,67.76,1.611,29.312,0,1.358Z" transform="matrix(0.996, 0.087, -0.087, 0.996, 57.09, 4.027)" fill="#b73a46"/>
        <path id="Shirt" d="M0,69.328H46.6c2.13,0,1.728-3.07,1.42-4.619C44.471,46.829,30.6,27.556,30.6,2.1L17.16,0C6.041,17.854,2.2,39.836,0,69.328Z" transform="translate(34.011 2.136)" fill="#dde3e9"/>
        <path id="Coat_Front" data-name="Coat Front" d="M.062,97.007c-1.075-34.712,12.089-61.424,23.1-77.53a7.07,7.07,0,0,1-6.05-3.711C12.2,6.914,13.978,2.041,19.229.439s9.933,1.7,18.3,1.7a6.531,6.531,0,0,1,1,.071l4.461.254S61.1,63.744,52.977,84.236H16.14a116.617,116.617,0,0,1-6.084,12.771Z" transform="translate(12.63 0)" fill="#d64654"/>
        <path id="Shade" d="M13.768,22.225H0C2.525,16.171,5.31,8.693,8.278,0c1.236,10.713,3.082,18.191,5.489,22.224Z" transform="translate(28.771 62.01)" fill="rgba(0,0,0,0.1)"/>
      </g>
    </g>
    <g id="humaaan-2" transform="translate(147.28 2287.249) rotate(1)">
      <g id="Head_Front-2" data-name="Head/Front" transform="translate(6.02 0)">
        <g id="Head-3" data-name="Head" transform="translate(71.815 22.192)">
          <path id="Head-4" data-name="Head" d="M0,42.632l4.824-22.49C2.134,16.983.313,13.112.617,8.775c.877-12.5,18.27-9.748,21.653-3.441s2.982,22.308-1.391,23.436c-1.744.45-5.459-.652-9.24-2.931l2.373,16.794Z" transform="translate(0 0)" fill="#b28b67"/>
        </g>
        <path id="hair-2" data-name="hair" d="M86.1,20.256c-1.847-.3-6.819-.511-7.737-.511-.586,0-1.221.134-1.568-.4-.284-.441-.18-1.186-.265-1.7-.1-.594-.238-1.181-.38-1.766a17.956,17.956,0,0,0-1.864-4.735,14.553,14.553,0,0,0-6.9-6.247A22.145,22.145,0,0,0,56.915,3.455C53.156,3.76,49.754,5,46.205,6.169a22.439,22.439,0,0,1-10.46,1.007c-3.564-.548-6.256-2.479-9.262-4.313A17.25,17.25,0,0,0,16.252.04,19.7,19.7,0,0,0,6.919,3.58,15.229,15.229,0,0,0,.9,10.409c-1.317,3.193-1.315,6.7.85,9.519,3.138,4.09,8.964,5.148,13.81,5.042a26.38,26.38,0,0,0,8.2-1.5c3.53-1.242,6.58-3.347,9.882-5.054a25.711,25.711,0,0,1,4.831-1.934c1.629-.46,3.234-.671,4.709.313a22.238,22.238,0,0,0,4.744,2.717,15.3,15.3,0,0,0,5.352.961c3.55-.027,7.05-1.134,10.5-1.875,2.812-.6,5.82-1.206,8.687-.626,1.2.242,2.943.743,3.375,1.986-7.272,1.318-10.128,10.314-8.078,16.917,1.106,3.564,7.757,7.73,10.343,5.857,1.638-1.187.644-2.745,0-3.774-1.233-1.97-1.654-4.5.626-5.872,1.967-1.183,4.036,1.626,4.075,1.623.541-.043,5.213-2.686,8.432-6.543,3.176.188,3.658-1.906,2.9-3.619S88.65,20.675,86.1,20.256Z" transform="translate(0 0)" fill="#3e3e3e"/>
      </g>
      <g id="Bottom_Skinny_Jeans_1-2" data-name="Bottom/Skinny Jeans 1" transform="translate(0 113.297)">
        <path id="Leg-3" data-name="Leg" d="M0,0,43.385,72.549,75.91,133.884h7.006L28.419,0Z" transform="translate(74.331 0)" fill="#997659"/>
        <g id="Right_Shoe-2" data-name="Right Shoe" transform="translate(144.978 127.507)">
          <path id="shoe-3" data-name="shoe" d="M2.612,2.745a1.168,1.168,0,0,0-1.5.787L0,7.46a37.527,37.527,0,0,0,.526,4.61H33.457s1.284-4.245-1.482-4.583-4.595-.611-4.595-.611L12.074.051A.584.584,0,0,0,11.3.362l-.984,2.387A13.231,13.231,0,0,1,6.152,3.944Z" transform="translate(0 0)" fill="#e4e4e4"/>
        </g>
        <path id="Pant-3" data-name="Pant" d="M74.091,124.062,87.6,119.974s-8.879-26.55-21.765-58.435S38.159,0,38.159,0H0S16.446,37.512,34.869,68.168A520.927,520.927,0,0,0,74.091,124.062Z" transform="translate(67.117 0)" fill="#912c36"/>
        <path id="Leg-4" data-name="Leg" d="M66.4,0C62.306,25.494,54.408,58.066,53.663,59.071Q52.918,60.077,0,77.058l1.513,6.179q63.1-9.107,66.5-14.131C71.411,64.082,88.372,24.39,94.941,0Z" transform="translate(5.08 0)" fill="#b28b67"/>
        <path id="Pant-4" data-name="Pant" d="M0,71.716l2.666,9.952q47.2,4.141,57.839-5.984T84.759,0H48.372q-8.625,53.685-9.644,55.939T0,71.716Z" transform="translate(17.481 0)" fill="#b73a46"/>
        <g id="Left_Shoe-2" data-name="Left Shoe" transform="matrix(0.174, 0.985, -0.985, 0.174, 10.972, 72.708)">
          <path id="shoe-4" data-name="shoe" d="M2.412,2.534a1.078,1.078,0,0,0-1.383.727L0,6.886a34.631,34.631,0,0,0,.486,4.256h30.4s1.185-3.918-1.368-4.231-4.242-.564-4.242-.564L11.148.047a.539.539,0,0,0-.718.287l-.908,2.2A12.218,12.218,0,0,1,5.68,3.64Z" transform="translate(0 0)" fill="#e4e4e4"/>
        </g>
      </g>
      <g id="Body_Long_Sleeve_1-2" data-name="Body/Long Sleeve 1" transform="translate(31.221 51.977)">
        <path id="Skin-2" data-name="Skin" d="M.716,52.486c-.652-.4-1.365-1.915.359-3.1,4.3-2.947,10.487-8.1,11.323-9.8,1.711-3.472,7.537-37.311,7.537-37.311l12.2.048s-11.3,36.489-12.2,38.721c-1.351,3.349,1.508,8.45,2.73,11.191-1.927.863-2.822-.239-3.8-1.34-1.045-1.174-2.187-2.347-4.778-1.141-3.317,1.544-6.059,3.994-9.327,3.993A7.583,7.583,0,0,1,.716,52.486ZM105.054,19.65,87.855,9.508,93.348,0l16.54,16.139a50.126,50.126,0,0,1,11.829,6.8c.692.834,1.444,2.432-1.808,1.717s-6.706-1.321-7.317-.263,1.19,2.679.06,4.064a.427.427,0,0,1-.347.166Q110.749,28.624,105.054,19.65Z" transform="translate(0 52.048)" fill="#b28b67"/>
        <path id="Coat_Back-2" data-name="Coat Back" d="M0,1.3,4.954,0Q20.782,31.319,55.468,55.011L40.9,76.251C17.12,52.961,1.549,28.148,0,1.3Z" transform="matrix(0.996, 0.087, -0.087, 0.996, 54.723, 1.816)" fill="#2f9f74"/>
        <path id="Shirt-2" data-name="Shirt" d="M0,66.577H44.957s-15.623-38-15.623-64.556L15.772,0C5.115,17.145,2.1,38.255,0,66.577Z" transform="translate(32.601 0)" fill="#dde3e9"/>
        <path id="Coat_Front-2" data-name="Coat Front" d="M0,85.849C4.917,30.366,35.91,0,35.91,0l.011.009L35.926,0h.885c1.589.055,4.84.2,4.84.2l3.277,9.367C45.448,26.695,51,78.611,51,78.611H21.574q.075,3.57.339,7.238Z" transform="translate(12.166 0)" fill="#45d69e"/>
        <path id="Shade-2" data-name="Shade" d="M8.234,28.907H.036A149.243,149.243,0,0,1,2.254,0,157.083,157.083,0,0,0,4.232,16.168c1.068,5.787,2.414,10.072,4,12.738Z" transform="translate(33.708 49.934)" fill="rgba(0,0,0,0.1)"/>
        <path id="Light" d="M0,6.757,14.532,0V6.757Z" transform="translate(40.256 53.979)" fill="rgba(255,255,255,0.2)"/>
      </g>
    </g>
    <g id="humaaan-11" transform="translate(449.299 2314.541)">
      <g id="Head_Front-3" data-name="Head/Front" transform="matrix(0.966, -0.259, 0.259, 0.966, 34.942, 11.305)">
        <g id="Head-5" data-name="Head" transform="translate(20.747 4.372)">
          <path id="Head-6" data-name="Head" d="M0,39.9,4.511,18.85A14.816,14.816,0,0,1,.577,8.212c.82-11.7,17.085-9.123,20.248-3.22s2.788,20.877-1.3,21.932c-1.631.421-5.1-.61-8.64-2.743L13.1,39.9Z" transform="translate(0 0)" fill="#915b3c"/>
        </g>
        <path id="hair-3" data-name="hair" d="M42.81,12.015a15.009,15.009,0,0,0-.7-2.339,10.947,10.947,0,0,0-1.379-2.568,19.4,19.4,0,0,0-3.646-3.96A11.908,11.908,0,0,0,28.259.308a9.052,9.052,0,0,0-4.425,1.8c-1.181.908-2.317,2.246-3.846,2.342-1.664.1-3.189-1.366-4.524-2.274A12.15,12.15,0,0,0,10.6.12,8.083,8.083,0,0,0,2.855,3.05C.695,5.625-.876,9.4.543,12.812a4.377,4.377,0,0,0,1.09,1.612c.447.406,1.129.839,1.31,1.488.192.69-.382,1.58-.6,2.2a6.49,6.49,0,0,0-.488,2.8,7.217,7.217,0,0,0,2.209,4.16,7.339,7.339,0,0,0,3.809,1.958,10.677,10.677,0,0,0,2.865.221,8.909,8.909,0,0,0,1.357-.273,1.226,1.226,0,0,1,1.079.263,8.847,8.847,0,0,0,5.707,1.416,9.167,9.167,0,0,0,5.111-1.742c1.56-1.312,1.529-3.12,1.162-5.052.389.193,1.465.312.822-.457a3.48,3.48,0,0,0-1.063-.608,3.867,3.867,0,0,1-1.062-.818c-1.193-1.374.012-4.169,1.511-4.63,2.228-.684,2.727,2.469,4.317,3.285.914.469,1.871-.172,2.556-.827a10.246,10.246,0,0,0,2.083-3.221c.445-.974.859-1.961,1.312-2.93.212-.452.945-1.731.577-2.243a6.859,6.859,0,0,1,4.747,1.216,3.248,3.248,0,0,1,1.3,1.392c.065.136.206.541.384.557.33.031.207-.373.174-.565" transform="translate(0 0)" fill="#3e3e3e"/>
      </g>
      <g id="Bottom_Skinny_Jeans_1-3" data-name="Bottom/Skinny Jeans 1" transform="translate(0 90.151)">
        <path id="Skirt_Shadow" data-name="Skirt Shadow" d="M0,8.616s19.647,5.5,33.9,5.5,26.48-8.471,26.48-8.471S41.155,0,28.714,0,0,8.616,0,8.616Z" transform="translate(52.495 47.342)" fill="#912c36"/>
        <path id="Leg-5" data-name="Leg" d="M32.9,64.395a3.093,3.093,0,0,1-.318-.621C30.836,59.14,2.794,9.141,0,0H31.572C33.7,6.95,43.256,50.565,44.6,59.267c4.245,13.726,12.986,58.18,14.1,61.26,1.174,3.24-5.431,6.615-7.191,2.632a339.093,339.093,0,0,1-12.444-34.58C36.284,78.541,34.016,69.511,32.9,64.395Z" transform="translate(64.83 2.35)" fill="#784931"/>
        <path id="Leg-6" data-name="Leg" d="M67.063,70.5C54.243,73.743,7.348,79.607,4.13,80.526c-3.31.946-6.213-5.884-2.121-7.364A338.266,338.266,0,0,1,37.337,63.149c8.749-1.785,16.733-3.242,22.093-4.1C58.976,43.981,56.9,7.812,58.261,0H86.2c-1.3,7.491-12.334,62.15-14.384,67.622-.651,1.953-2.592,2.816-4.749,2.878Z" transform="translate(4.841 2.35)" fill="#915b3c"/>
        <g id="Left_Shoe-3" data-name="Left Shoe" transform="matrix(0.174, 0.985, -0.985, 0.174, 10.666, 72.117)">
          <path id="shoe-5" data-name="shoe" d="M2.344,2.463A1.048,1.048,0,0,0,1,3.17L0,6.693A33.663,33.663,0,0,0,.472,10.83H30.027s1.152-3.809-1.33-4.112-4.124-.548-4.124-.548L10.836.046a.524.524,0,0,0-.7.279L9.256,2.466A11.876,11.876,0,0,1,5.521,3.538Z" transform="translate(0 0)" fill="#e4e4e4"/>
        </g>
        <g id="Right_Shoe-3" data-name="Right Shoe" transform="translate(113.422 121.676)">
          <path id="shoe-6" data-name="shoe" d="M2.442,2.9a1.092,1.092,0,0,0-1.4.737L0,7.313a35.144,35.144,0,0,0,.492,4.315H31.286s1.2-3.972-1.386-4.289-4.3-.572-4.3-.572L11.291.379a.546.546,0,0,0-.727.291L9.644,2.9A12.365,12.365,0,0,1,5.753,4.023Z" transform="translate(0 -0.332)" fill="#e4e4e4"/>
        </g>
        <path id="Skirt" d="M12.754,2.888S31.219-2.4,47.7,2.888C51.518,20.343,60.8,27.271,62.438,54.032c-18.563,9.233-41.495-6.585-60.6,2.419C-3.626,43.857,4.018,13.526,12.754,2.888Z" transform="translate(50.438 -0.538)" fill="#d64654"/>
      </g>
      <g id="Body_Long_Sleeve_1-3" data-name="Body/Long Sleeve 1" transform="matrix(0.985, -0.174, 0.174, 0.985, 44.488, 41.252)">
        <path id="Skin-3" data-name="Skin" d="M29.68,28.12,38,23.542s1.752-6.673,4.189-6.715c.628-.293.389.989.3,2.27-.089,1.262-.032,2.524,1.141,2.283,2.366-.487,8.139-4.786,9.134-3.913,1.472,1.292.16,5.256-1.387,7.228-2.89,3.686-5.283,4.947-11.2,6.6-4.638,1.295-10.03,5.19-10.03,5.19ZM0,19.354,18.951,8.964A46.9,46.9,0,0,1,28.266.236c.935-.391,2.569-.627,1.041,2.089S26.292,7.965,27.071,8.8c.342.367.909.348,1.515.328a2.17,2.17,0,0,1,2.134.73q.929,1.39-9.952,4.392L7,26.873Z" transform="translate(44.451 3.983)" fill="#915b3c"/>
        <path id="Sleeve" d="M3.007,3.482A46.53,46.53,0,0,0,28.8,0l2.368,8.758c-7.447,5.373-17.326,9.192-25.2,7.717A7.244,7.244,0,0,1,3.007,3.482Z" transform="translate(31.707 18.054) rotate(-9)" fill="#cb942f"/>
        <path id="Clothes" d="M18.247,77.87C11.58,77,5.378,76.136,1.774,76.846c-6.179-20.088,5.768-28.251,5.778-41.1C7.562,21.666,18.853,0,20.514,0H35.664c.835,10.744,5.039,22.585,8.49,34.284,11.009,2.5,35.456-6.206,35.456-6.206S85.782,40.858,85.316,46.3C71.086,53.742,58.891,57.059,48.843,57.277A34.647,34.647,0,0,1,46,74.113C44.175,78,39.129,79.156,32.97,79.156A119.642,119.642,0,0,1,18.247,77.87Z" transform="translate(0 0)" fill="#efb03a"/>
      </g>
    </g>
  </g>
</svg>
