<svg xmlns="http://www.w3.org/2000/svg" viewBox="0 0 599.197 307.726">
  <ellipse id="Oval" cx="299.598" cy="24.448" rx="299.598" ry="24.448" transform="translate(0 232.758)" fill="#f8f8f8"/>
  <g id="humaaan-11" transform="translate(375.257 33.888)">
    <g id="Head_Front" data-name="Head/Front" transform="matrix(0.966, -0.259, 0.259, 0.966, 42.884, 13.874)">
      <g id="Head" transform="translate(25.463 5.366)">
        <path id="Head-2" data-name="Head" d="M0,48.965,5.536,23.134C2.449,19.506.359,15.06.708,10.078,1.715-4.276,21.676-1.118,25.559,6.127s3.422,25.622-1.6,26.917c-2,.516-6.265-.748-10.6-3.367l2.724,19.288Z" transform="translate(0)" fill="#915b3c"/>
      </g>
      <path id="hair" d="M52.54,14.746a18.42,18.42,0,0,0-.863-2.87,13.436,13.436,0,0,0-1.692-3.151,23.808,23.808,0,0,0-4.475-4.86A14.615,14.615,0,0,0,34.682.378a11.109,11.109,0,0,0-5.431,2.213C27.8,3.706,26.407,5.347,24.53,5.465c-2.042.128-3.914-1.676-5.552-2.791A14.912,14.912,0,0,0,13.008.147a9.92,9.92,0,0,0-9.5,3.6C.852,6.9-1.075,11.537.666,15.724A5.372,5.372,0,0,0,2,17.7c.548.5,1.385,1.029,1.607,1.826.236.847-.469,1.94-.742,2.7a7.965,7.965,0,0,0-.6,3.434,8.857,8.857,0,0,0,2.711,5.105,9.007,9.007,0,0,0,4.675,2.4,13.1,13.1,0,0,0,3.516.271,10.933,10.933,0,0,0,1.665-.334,1.5,1.5,0,0,1,1.324.323,10.858,10.858,0,0,0,7,1.738,11.251,11.251,0,0,0,6.273-2.138c1.914-1.61,1.876-3.829,1.426-6.2.477.237,1.8.383,1.009-.56a4.271,4.271,0,0,0-1.3-.746,4.746,4.746,0,0,1-1.3-1c-1.464-1.686.015-5.117,1.855-5.683,2.734-.84,3.346,3.031,5.3,4.032,1.122.576,2.3-.211,3.137-1.015A12.575,12.575,0,0,0,42.111,17.9c.546-1.195,1.054-2.407,1.61-3.6.26-.555,1.159-2.125.708-2.753a8.418,8.418,0,0,1,5.826,1.492,3.987,3.987,0,0,1,1.6,1.708c.08.167.253.664.471.684.405.038.254-.458.214-.694" transform="translate(0)" fill="#3e3e3e"/>
    </g>
    <g id="Bottom_Skinny_Jeans_1" data-name="Bottom/Skinny Jeans 1" transform="translate(0 110.642)">
      <path id="Skirt_Shadow" data-name="Skirt Shadow" d="M0,10.575s24.112,6.751,41.607,6.751,32.5-10.4,32.5-10.4S50.51,0,35.241,0,0,10.575,0,10.575Z" transform="translate(64.427 58.103)" fill="#912c36"/>
      <path id="Leg" d="M40.384,79.032a3.8,3.8,0,0,1-.39-.762C37.845,72.582,3.429,11.219,0,0H38.748c2.607,8.53,14.34,62.058,15.992,72.738,5.21,16.846,15.937,71.4,17.307,75.184,1.441,3.976-6.665,8.118-8.825,3.23-3.437-7.778-11.626-29.3-15.272-42.44C44.531,96.393,41.747,85.31,40.384,79.032Z" transform="translate(79.565 2.885)" fill="#784931"/>
      <path id="Leg-2" data-name="Leg" d="M82.307,86.524C66.572,90.5,9.018,97.7,5.068,98.83c-4.063,1.161-7.625-7.222-2.6-9.038C10.456,86.9,32.474,80.227,45.824,77.5c10.738-2.191,20.536-3.979,27.114-5.027C72.381,53.978,69.833,9.588,71.5,0h34.285c-1.6,9.194-15.137,76.277-17.653,82.992-.8,2.4-3.181,3.457-5.829,3.532Z" transform="translate(5.941 2.885)" fill="#915b3c"/>
      <g id="Left_Shoe" data-name="Left Shoe" transform="matrix(0.174, 0.985, -0.985, 0.174, 13.09, 88.509)">
        <path id="shoe" d="M2.877,3.023a1.286,1.286,0,0,0-1.65.867L0,8.215a41.314,41.314,0,0,0,.58,5.077H36.852s1.414-4.674-1.632-5.047-5.061-.673-5.061-.673L13.3.056A.643.643,0,0,0,12.443.4L11.359,3.027A14.576,14.576,0,0,1,6.776,4.343Z" transform="translate(0 0)" fill="#e4e4e4"/>
      </g>
      <g id="Right_Shoe" data-name="Right Shoe" transform="translate(139.202 149.333)">
        <path id="shoe-2" data-name="shoe" d="M3,3.485a1.34,1.34,0,0,0-1.719.9L0,8.9a43.132,43.132,0,0,0,.6,5.3H38.4s1.473-4.875-1.7-5.264-5.273-.7-5.273-.7L13.857.39a.67.67,0,0,0-.892.357L11.836,3.489A15.176,15.176,0,0,1,7.06,4.861Z" transform="translate(0 -0.332)" fill="#e4e4e4"/>
      </g>
      <path id="Skirt" d="M15.653,3.422s22.662-6.49,42.885,0C63.228,24.844,74.626,33.347,76.63,66.191,53.847,77.523,25.7,58.109,2.251,69.16-4.45,53.7,4.931,16.478,15.653,3.422Z" transform="translate(61.902 -0.538)" fill="#d64654"/>
    </g>
    <g id="Body_Long_Sleeve_1" data-name="Body/Long Sleeve 1" transform="matrix(0.985, -0.174, 0.174, 0.985, 54.6, 50.629)">
      <path id="Skin" d="M36.427,34.512l10.217-5.618s2.15-8.19,5.141-8.241c.771-.36.477,1.213.367,2.786-.109,1.549-.04,3.1,1.4,2.8,2.9-.6,9.989-5.874,11.21-4.8,1.806,1.585.2,6.451-1.7,8.871-3.547,4.524-6.484,6.071-13.742,8.1-5.692,1.589-12.309,6.369-12.309,6.369ZM0,23.753,23.258,11A57.561,57.561,0,0,1,34.691.29c1.147-.479,3.153-.77,1.277,2.563s-3.7,6.923-2.744,7.95c.42.451,1.115.427,1.86.4.95-.03,1.98-.061,2.619.9q1.141,1.706-12.214,5.39L8.589,32.981Z" transform="translate(54.554 4.889)" fill="#915b3c"/>
      <path id="Sleeve" d="M3.69,4.274A57.106,57.106,0,0,0,35.35,0l2.906,10.749c-9.14,6.594-21.264,11.281-30.93,9.471A8.891,8.891,0,0,1,3.69,4.274Z" transform="translate(38.914 22.157) rotate(-9)" fill="#cb942f"/>
      <path id="Clothes" d="M22.394,95.57C14.213,94.505,6.6,93.441,2.177,94.313-5.407,69.659,9.257,59.64,9.268,43.865,9.281,26.59,23.138,0,25.177,0H43.77c1.025,13.186,6.184,27.719,10.42,42.076,13.512,3.071,43.516-7.617,43.516-7.617s7.575,15.685,7,22.365C87.243,65.957,72.277,70.028,59.945,70.3c.392,7.324-.5,14.294-3.491,20.662-2.239,4.764-8.432,6.189-15.99,6.189A146.834,146.834,0,0,1,22.394,95.57Z" transform="translate(0 0)" fill="#efb03a"/>
    </g>
  </g>
  <g id="megaphone_1_" data-name="megaphone (1)" transform="matrix(0.996, -0.087, 0.087, 0.996, 489.692, 6.872)">
    <path id="Path" d="M18.323,25.708,5.482,29.82c-1.441-3.98,2.031-5.24,1.376-10.148C6.6,17.815,5.22,18.346,4.434,16.289l-.2-5.041L.11,7.932c-.59-1.592,1.376-3.449,1.376-3.449S5.81-.491,8.889.04C13.213.7,18.323,25.708,18.323,25.708Z" transform="translate(40.791 85.042) rotate(180)" fill="#45d69e"/>
    <path id="Path-2" data-name="Path" d="M1.674.737c.587,4.755-2.413,6.1-1.5,9.645L8.131,8.439l4.957-1.607s-.13-.737-.457-2.009L1.413,0A1.917,1.917,0,0,1,1.674.737Z" transform="translate(35.555 66.045) rotate(180)" fill="#2f9f74"/>
    <path id="Path-3" data-name="Path" d="M16.636,26.636,9.693,29.157c-.066-2.985-1.244-8.093-3.275-13.731C4.388,9.854,1.965,5.21,0,2.888L6.943.368C11.658-1.357,17.618,3.154,20.3,10.384,22.989,17.681,21.352,24.912,16.636,26.636Z" transform="translate(21.595 63.837) rotate(180)" fill="#176c4b"/>
    <path id="Path-4" data-name="Path" d="M19.42,28.31C25,43.54,26.834,57.241,24.013,60.965a10.99,10.99,0,0,0,1.378-1.729c4.658-6.983,12.466-22.014,39.235-31.724v-.067c1.64-.6.722-7.249-2.034-14.765C59.836,5.1,56.293-.555,54.653.043,27.884,9.754,12.138,3.036,4,.708a5.1,5.1,0,0,0-4,.2C4.265-.754,13.188,11.417,19.42,28.31Z" transform="translate(71.329 63.174) rotate(180)" fill="#5eedb6"/>
    <path id="Path-5" data-name="Path" d="M1.183,30.345C.526,34.4.329,35.2.066,36.468l-.066.2a13.323,13.323,0,0,0,1.249-1.6C5.982,28.083,13.8,13.043,40.623,3.327V3.261c.657-.266.92-1.464.789-3.261L39.243.665C14.527,9.516,6.047,22.959,1.183,30.345Z" transform="translate(47.335 38.876) rotate(180)" fill="#45d69e"/>
    <path id="Path-6" data-name="Path" d="M25.54,62.312c5.2-1.928,4.479-17.42-1.647-34.575C17.832,10.584,8.676-1.784,3.472.211c-5.2,1.928-4.479,17.42,1.647,34.575S20.4,64.241,25.54,62.312Z" transform="translate(75.037 62.511) rotate(180)" fill="#2f9f74"/>
    <path id="Path-7" data-name="Path" d="M10.158,20.256c6.068,17.134,6.794,32.608,1.649,34.534a4.424,4.424,0,0,1-3.76-.6c3.826,5.379,7.585,8.235,10.29,7.239,5.211-1.926,4.485-17.4-1.649-34.534C11.873,13.349,5.145,2.856,0,0A84.48,84.48,0,0,1,10.158,20.256Z" transform="translate(67.839 61.628) rotate(180)" fill="#176c4b"/>
    <path id="Path-8" data-name="Path" d="M11.554,16.469a6.878,6.878,0,0,0,.662-.267c-.6-2.2-1.324-4.4-2.118-6.734C8.906,6.134,7.583,2.934,6.193,0a4.538,4.538,0,0,0-.53.2A8.779,8.779,0,0,0,.5,11.335,8.589,8.589,0,0,0,11.554,16.469Z" transform="translate(61.077 44.178) rotate(180)" fill="#f8f8f8"/>
    <path id="Path-9" data-name="Path" d="M.4,2.8A95.057,95.057,0,0,1,4.315,16.92,8.317,8.317,0,0,0,8.5,16.454a6.914,6.914,0,0,0,.664-.266c-.6-2.2-1.328-4.4-2.124-6.728C5.842,6.129,4.514,2.931,3.12,0a4.562,4.562,0,0,0-.531.2A7.228,7.228,0,0,0,0,1.732C.133,2.065.266,2.4.4,2.8Z" transform="translate(58.023 44.178) rotate(180)" fill="#dadadb"/>
  </g>
  <g id="humaaan-3" transform="translate(35 7.105)">
    <g id="Head_Front-2" data-name="Head/Front" transform="matrix(0.966, -0.259, 0.259, 0.966, 62.73, 8.387)">
      <g id="Head-3" data-name="Head" transform="translate(0.083 1.478)">
        <path id="Head-4" data-name="Head" d="M0,54.485,6.176,25.742C2.732,21.705.4,16.758.79,11.214,1.913-4.758,24.183-1.244,28.514,6.817s3.817,28.51-1.781,29.951c-2.233.575-6.989-.833-11.83-3.746l3.039,21.462Z" transform="translate(0)" fill="#b28b67"/>
      </g>
      <path id="Hair-2" data-name="Hair" d="M15.105,33.625c-1.205-3.634-1.664-14.1-1.776-17.188a4.54,4.54,0,0,0-.538-.032,4.477,4.477,0,0,0-3.134,7.682c-1.038,1.462-2.2,2.991-3.534,4.567C1.116,25.655-2.6,16.875,2.3,8.44A11.069,11.069,0,0,1,10.33,1.077,13.033,13.033,0,0,1,18.871.448C23.9.879,28.4,2.412,29.674,3.322c0,4.758-.924,6.17-8.811,6.046a14.537,14.537,0,0,0-4.98,5.088c.011.154,1.054,14.327,5.45,14.327,4.42,0,8.17-2.8,10.11-2.8,1.414,0,1.1,1.767.161,3.076-.773,1.081-4.538,2.122-4.538,3.8,0,.946.949.944,1.774.942.636,0,1.2,0,1.2.431,0,1.643.523,4.733-2.334,4.733C24.815,38.961,16.525,37.909,15.105,33.625Z" transform="translate(0)" fill="#3e3e3e"/>
    </g>
    <g id="Bottom_Skinny_Jeans_1-2" data-name="Bottom/Skinny Jeans 1" transform="translate(0 122.238)">
      <path id="Leg-3" data-name="Leg" d="M0,0,36.691,92.719,61.3,171.106h9.718L33.4,0Z" transform="translate(85.582)" fill="#997659"/>
      <path id="Leg-4" data-name="Leg" d="M69.852,0c-.391,32.582-6.089,76.449-7,78.48S0,130.136,0,130.136l6.693,7.151S79.78,94.74,83.162,89.065,97.555,31.171,106.4,0Z" transform="translate(8.341)" fill="#b28b67"/>
      <g id="Left_Shoe-2" data-name="Left Shoe" transform="translate(10.928 123.136) rotate(50)">
        <path id="shoe-3" data-name="shoe" d="M3.088,3.245a1.38,1.38,0,0,0-1.77.931L0,8.817a44.34,44.34,0,0,0,.622,5.449H39.551S41.069,9.249,37.8,8.849s-5.432-.722-5.432-.722L14.274.06a.69.69,0,0,0-.919.367L12.191,3.249A15.644,15.644,0,0,1,7.273,4.661Z" transform="translate(0)" fill="#e4e4e4"/>
      </g>
      <g id="Right_Shoe-2" data-name="Right Shoe" transform="translate(141.649 162.957)">
        <path id="shoe-4" data-name="shoe" d="M3.344,3.841A1.5,1.5,0,0,0,1.427,4.847L0,9.866a47.876,47.876,0,0,0,.674,5.892H42.837s1.644-5.425-1.9-5.857-5.883-.781-5.883-.781L15.459.4a.748.748,0,0,0-1,.4L13.2,3.845A16.963,16.963,0,0,1,7.877,5.372Z" transform="translate(0 -0.332)" fill="#e4e4e4"/>
      </g>
      <path id="Pant" d="M29.421,163.032l46.2-5.006L41.382,0H0Z" transform="translate(80.83 0)" fill="#bfbfbf"/>
      <path id="Pant-2" data-name="Pant" d="M0,118.6l30.306,35.815S78.187,102.2,86.136,86.278,100.426,0,100.426,0H53.838s-3.464,61.893-4.67,64.774S0,118.6,0,118.6Z" transform="translate(17.898)" fill="#cecece"/>
    </g>
    <g id="Body_Long_Sleeve_1-2" data-name="Body/Long Sleeve 1" transform="matrix(0.985, -0.174, 0.174, 0.985, 15.139, 55.275)">
      <path id="Skin-2" data-name="Skin" d="M.917,64.772c-.834-.513-1.748-2.448.46-3.959,5.5-3.765,13.427-10.355,14.5-12.525C18.065,43.851,25.526.6,25.526.6L41.147.665S26.679,47.3,25.526,50.152c-1.73,4.28,1.931,10.8,3.5,14.3-2.467,1.1-3.614-.3-4.868-1.712-1.338-1.5-2.8-3-6.118-1.458-4.246,1.972-7.757,5.1-11.942,5.1A9.721,9.721,0,0,1,.917,64.772ZM135.424,22.787,111.81,13.01,117.081,0l23.846,17.483a64.228,64.228,0,0,1,16.21,6.5c1.025.932,2.264,2.821-1.987,2.495s-8.737-.479-9.324.969,1.986,3.179.8,5.132a.564.564,0,0,1-.517.278Q144.014,32.86,135.424,22.787Z" transform="translate(0 71.446)" fill="#b28b67"/>
      <path id="Coat_Back" data-name="Coat Back" d="M0,1.666,6.343,0c25.7,18.517,38.973,57.247,70.095,75.657L70.152,85C18.8,83.162,1.977,35.974,0,1.666Z" transform="matrix(0.996, 0.087, -0.087, 0.996, 70.066, 4.942)" fill="#b73a46"/>
      <path id="Shirt" d="M0,85.086H57.2c2.614,0,2.121-3.768,1.743-5.669-4.36-21.944-21.382-45.6-21.382-76.834L21.06,0C7.414,21.912,2.695,48.891,0,85.086Z" transform="translate(41.742 2.622)" fill="#dde3e9"/>
      <path id="Coat_Front" data-name="Coat Front" d="M.076,119.056C-1.244,76.454,14.912,43.67,28.432,23.9a8.677,8.677,0,0,1-7.425-4.554C14.978,8.486,17.155,2.5,23.6.539S35.791,2.622,46.059,2.622a8.015,8.015,0,0,1,1.224.087l5.475.312s22.227,75.212,12.26,100.361H19.809a143.125,143.125,0,0,1-7.466,15.674Z" transform="translate(15.501 0)" fill="#d64654"/>
      <path id="Shade" d="M16.9,27.277H0C3.1,19.846,6.517,10.669,10.16,0c1.517,13.148,3.783,22.325,6.737,27.276Z" transform="translate(35.31 76.105)" fill="rgba(0,0,0,0.1)"/>
    </g>
  </g>
  <g id="humaaan-2" transform="matrix(0.998, 0.07, -0.07, 0.998, 213.524, 0)">
    <g id="Head_Front-3" data-name="Head/Front" transform="translate(6.737 0)">
      <g id="Head-5" data-name="Head" transform="translate(80.372 24.837)">
        <path id="Head-6" data-name="Head" d="M0,47.712l5.4-25.17C2.388,19.007.35,14.675.69,9.82,1.672-4.167,21.138-1.09,24.924,5.97S28.261,30.936,23.367,32.2c-1.952.5-6.109-.729-10.341-3.28l2.656,18.795Z" transform="translate(0)" fill="#b28b67"/>
      </g>
      <path id="hair-3" data-name="hair" d="M96.358,22.67c-2.067-.339-7.632-.572-8.658-.572-.656,0-1.367.15-1.755-.452-.318-.493-.2-1.328-.3-1.9-.11-.665-.267-1.321-.425-1.976a20.1,20.1,0,0,0-2.086-5.3,16.287,16.287,0,0,0-7.72-6.991A24.783,24.783,0,0,0,63.7,3.867C59.491,4.208,55.683,5.6,51.711,6.9A25.113,25.113,0,0,1,40,8.031C36.016,7.418,33,5.256,29.639,3.2A19.306,19.306,0,0,0,18.189.045,22.049,22.049,0,0,0,7.743,4.006,17.043,17.043,0,0,0,1.008,11.65c-1.473,3.573-1.472,7.5.951,10.653,3.512,4.577,10.032,5.761,15.456,5.643A29.524,29.524,0,0,0,26.6,26.263c3.95-1.39,7.364-3.745,11.06-5.657a28.776,28.776,0,0,1,5.406-2.164c1.823-.515,3.62-.751,5.271.35a24.888,24.888,0,0,0,5.31,3.04,17.12,17.12,0,0,0,5.989,1.076c3.973-.031,7.89-1.269,11.749-2.1,3.147-.676,6.514-1.35,9.722-.7,1.339.271,3.294.831,3.778,2.223-8.138,1.475-11.334,11.542-9.04,18.933,1.238,3.989,8.682,8.652,11.576,6.555,1.833-1.328.72-3.073,0-4.224-1.38-2.2-1.852-5.037.7-6.572,2.2-1.324,4.517,1.82,4.561,1.817.605-.048,5.834-3.006,9.437-7.322,3.554.211,4.093-2.133,3.245-4.05S99.214,23.139,96.358,22.67Z" transform="translate(0)" fill="#3e3e3e"/>
    </g>
    <g id="Bottom_Skinny_Jeans_1-3" data-name="Bottom/Skinny Jeans 1" transform="translate(0 126.798)">
      <path id="Leg-5" data-name="Leg" d="M0,0,48.554,81.194l36.4,68.643H92.8L31.805,0Z" transform="translate(83.189 0)" fill="#997659"/>
      <g id="Right_Shoe-3" data-name="Right Shoe" transform="translate(162.254 142.701)">
        <path id="shoe-5" data-name="shoe" d="M2.923,3.073a1.307,1.307,0,0,0-1.676.881L0,8.349a42,42,0,0,0,.589,5.16H37.444s1.437-4.751-1.659-5.129S30.643,7.7,30.643,7.7L13.513.057a.653.653,0,0,0-.87.348l-1.1,2.672A14.807,14.807,0,0,1,6.885,4.414Z" transform="translate(0 0)" fill="#e4e4e4"/>
      </g>
      <path id="Pant-3" data-name="Pant" d="M82.92,138.846l15.12-4.575s-9.937-29.714-24.359-65.4S42.706,0,42.706,0H0S18.405,41.982,39.024,76.291A583,583,0,0,0,82.92,138.846Z" transform="translate(75.115 0)" fill="#912c36"/>
      <path id="Leg-6" data-name="Leg" d="M74.313,0C69.73,28.532,60.892,64.986,60.058,66.111Q59.223,67.236,0,86.24l1.694,6.916Q72.318,82.964,76.119,77.341C79.921,71.718,98.9,27.3,106.255,0Z" transform="translate(5.685 0)" fill="#b28b67"/>
      <path id="Pant-4" data-name="Pant" d="M0,80.262,2.983,91.4q52.823,4.634,64.731-6.7T94.859,0H54.136Q44.483,60.083,43.343,62.6T0,80.262Z" transform="translate(19.564 0)" fill="#b73a46"/>
      <g id="Left_Shoe-3" data-name="Left Shoe" transform="matrix(0.174, 0.985, -0.985, 0.174, 12.28, 81.372)">
        <path id="shoe-6" data-name="shoe" d="M2.7,2.836a1.207,1.207,0,0,0-1.548.814L0,7.706a38.758,38.758,0,0,0,.544,4.763H34.571S35.9,8.084,33.04,7.735,28.292,7.1,28.292,7.1L12.476.052a.6.6,0,0,0-.8.321L10.656,2.84a13.674,13.674,0,0,1-4.3,1.234Z" transform="translate(0 0)" fill="#e4e4e4"/>
      </g>
    </g>
    <g id="Body_Long_Sleeve_1-3" data-name="Body/Long Sleeve 1" transform="translate(34.941 58.17)">
      <path id="Skin-3" data-name="Skin" d="M.8,58.74c-.729-.45-1.528-2.144.4-3.467C6.012,51.976,12.94,46.2,13.876,44.3c1.915-3.885,8.436-41.757,8.436-41.757L35.967,2.6S23.32,43.438,22.312,45.937C20.8,49.685,24,55.393,25.367,58.461c-2.157.965-3.159-.267-4.255-1.5-1.169-1.314-2.447-2.627-5.348-1.277-3.712,1.728-6.781,4.47-10.439,4.469A8.486,8.486,0,0,1,.8,58.74ZM117.572,21.992,98.324,10.641,104.472,0l18.511,18.062a56.1,56.1,0,0,1,13.239,7.612c.774.934,1.616,2.722-2.024,1.922s-7.5-1.478-8.189-.295,1.331,3,.067,4.548a.478.478,0,0,1-.388.185Q123.946,32.035,117.572,21.992Z" transform="translate(0 58.25)" fill="#b28b67"/>
      <path id="Coat_Back-2" data-name="Coat Back" d="M0,1.458,5.544,0Q23.259,35.051,62.078,61.566L45.77,85.337C19.16,59.272,1.733,31.5,0,1.458Z" transform="matrix(0.996, 0.087, -0.087, 0.996, 61.244, 2.032)" fill="#2f9f74"/>
      <path id="Shirt-2" data-name="Shirt" d="M0,74.51H50.314S32.829,31.986,32.829,2.262L17.652,0C5.724,19.189,2.356,42.814,0,74.51Z" transform="translate(36.486 0)" fill="#dde3e9"/>
      <path id="Coat_Front-2" data-name="Coat Front" d="M0,96.079C5.5,33.984,40.189,0,40.189,0L40.2.01,40.207,0H41.2c1.778.061,5.417.221,5.417.221L50.282,10.7c.582,19.172,6.8,77.274,6.8,77.274H24.145q.084,4,.379,8.1Z" transform="translate(13.616 0)" fill="#45d69e"/>
      <path id="Shade-2" data-name="Shade" d="M9.216,32.352H.041A167.028,167.028,0,0,1,2.523,0,175.8,175.8,0,0,0,4.737,18.1c1.2,6.476,2.7,11.273,4.478,14.256Z" transform="translate(37.725 55.884)" fill="rgba(0,0,0,0.1)"/>
      <path id="Light" d="M0,7.563,16.263,0V7.563Z" transform="translate(45.053 60.412)" fill="rgba(255,255,255,0.2)"/>
    </g>
  </g>
</svg>
