<svg version="1.1" id="Layer_1" xmlns="http://www.w3.org/2000/svg" xmlns:xlink="http://www.w3.org/1999/xlink" x="0px" y="0px"
	 width="250.109px" height="272.91px" viewBox="0 0 250.109 272.91" enable-background="new 0 0 250.109 272.91"
	 xml:space="preserve">
<g>
	<path fill="#B83B47" d="M125.377,65.908c6.289,0,12.578-0.012,18.868,0.003c4.831,0.012,9.114-1.355,12.889-4.505
		c4.742-3.958,9.649-7.719,14.476-11.578c2.804-2.242,5.911-3.598,9.577-3.329c5.162,0.38,8.696,4.018,8.538,9.185
		c-0.175,5.759-1.971,11.281-2.917,16.932c-0.749,4.483-1.6,8.956-2.593,13.39c-0.37,1.649-0.034,2.056,1.603,2.065
		c12.367,0.067,19.9,11.195,17.623,22.439c-3.673,18.138-6.728,36.407-10.674,54.483c-5.182,23.733-28.712,42.17-52.949,42.17
		c-11.494,0-22.989,0.07-34.482-0.032c-4.666-0.042-8.685,1.315-12.28,4.26c-4.781,3.913-9.656,7.71-14.471,11.581
		c-1.971,1.584-4.099,2.786-6.625,3.248c-7.679,1.405-13.032-3.915-11.57-11.598c1.722-9.036,3.471-18.068,5.308-27.084
		c0.347-1.701,0.364-2.346-1.761-2.588c-13.409-1.521-19.733-10.616-17.077-24.012c3.389-17.092,6.6-34.218,9.978-51.312
		c4.994-25.268,30.254-44.631,53.251-43.747C115.178,66.075,120.281,65.909,125.377,65.908 M143.535,88.139
		c-12.039,0-24.078-0.08-36.115,0.022c-11.927,0.102-24.245,10.282-26.453,21.651c-4.683,24.111-9.346,48.227-14.108,72.322
		c-0.447,2.262,0.098,2.771,2.308,2.766c24.185-0.063,48.371,0.057,72.557-0.08c13.11-0.074,24.556-9.283,27.227-22.242
		c4.934-23.935,9.46-47.953,14.206-71.927c0.4-2.023-0.103-2.576-2.204-2.559C168.48,88.188,156.008,88.139,143.535,88.139"/>
	<path fill="#B83B47" d="M149.499,105.443c3.469,0,6.938,0.032,10.407-0.012c2.097-0.027,4.057,0.234,4.353,2.769
		c0.3,2.568-0.527,4.621-3.264,5.561c-1.167,0.401-2.317,0.415-3.499,0.415c-7.046,0.001-14.093,0.053-21.139-0.037
		c-1.731-0.022-2.367,0.462-2.704,2.241c-3.364,17.707-6.838,35.395-10.306,53.081c-0.286,1.462-0.452,2.937-1.26,4.306
		c-1.479,2.506-4.02,3.813-6.463,2.93c-2.668-0.963-2.607-3.159-2.182-5.389c2.036-10.688,4.1-21.371,6.164-32.054
		c1.425-7.379,2.734-14.784,4.367-22.117c0.625-2.809-0.372-3.052-2.727-3.007c-6.827,0.132-13.659,0.046-20.488,0.047
		c-2.464,0-4.942,0.076-4.94-3.483c0.002-2.907,1.923-5.14,4.997-5.208c5.635-0.124,11.274-0.036,16.911-0.046
		c2.059-0.003,4.12,0.024,6.175-0.07c1.612-0.075,2.695-0.555,2.842-2.627c0.122-1.723,0.363-3.64,1.961-4.975
		c1.672-1.398,3.405-2.516,5.564-1.399c2.286,1.184,2.93,3.465,2.116,5.619c-1.318,3.497,0.359,3.616,3.034,3.492
		C142.772,105.325,146.14,105.443,149.499,105.443"/>
	<path fill="#B83B47" d="M96.429,146.081c3.567,0,7.137-0.09,10.7,0.023c4.219,0.135,5.902,3.078,3.802,6.643
		c-4.655,7.906-14.394,12.222-22.494,9.605c-4.7-1.518-7.467-4.934-8.684-9.552c-0.896-3.4,1.97-6.552,5.975-6.693
		C89.291,145.982,92.862,146.081,96.429,146.081"/>
	<path fill="#B83B47" d="M147.014,163.113c-7.429-0.114-12.122-3.374-14.029-8.93c-1.501-4.37,0.644-7.918,5.265-8.046
		c7.352-0.203,14.717-0.176,22.07-0.002c3.59,0.086,5.185,3.23,3.383,6.352C159.744,159.345,153.664,162.735,147.014,163.113"/>
</g>
</svg>
